<svg width="446" height="444" viewBox="0 0 446 444" fill="none" xmlns="http://www.w3.org/2000/svg">
<path d="M356.799 340.016C316.396 360.957 268.925 350.19 239.466 318.553C207.569 354.474 154.035 365.8 112.257 338.817C73.3429 313.684 58.2764 263.452 79.7367 222.279C107.139 169.706 134.414 127.326 171.755 79.6577C183.787 64.2979 199.846 54.0359 217.354 49.0484C257.224 33.2105 303.735 45.2724 327.956 81.6738C359.683 129.357 381.637 172.351 402.204 225.555C419.186 269.488 398.51 318.398 356.799 340.016Z" fill="white"/>
<path d="M359.792 345.787C318.769 367.049 271.076 357.661 239.584 327.891C205.429 361.901 151.518 371.91 108.733 344.277C67.1938 317.448 50.8587 263.625 73.9748 219.275C101.563 166.346 129.055 123.63 166.641 75.6492C179.485 59.2522 196.615 48.266 215.267 42.886C257.652 26.2064 307.355 38.9758 333.369 78.0724C365.371 126.168 387.54 169.586 408.269 223.211C426.54 270.476 404.211 322.765 359.792 345.787ZM244.225 314.123C271.642 343.567 315.513 353.579 352.927 334.697L353.81 334.245C392.812 314.031 411.837 268.497 396.144 227.898C375.739 175.114 353.999 132.544 322.547 85.2739C300.357 51.9258 257.716 40.4566 220.631 54.7466L219.756 55.0886L219.452 55.2093L219.137 55.2993C202.892 59.927 188.023 69.4337 176.874 83.6657C139.778 131.022 112.72 173.066 85.5031 225.283C65.6986 263.28 79.4963 309.918 115.786 333.357C154.518 358.372 204.551 348.086 234.608 314.237L239.354 308.892L244.225 314.123Z" fill="black"/>
<path d="M200.332 337.852C190.676 356.749 159.37 360.47 130.407 346.163C101.444 331.857 85.7918 304.94 95.4471 286.044C105.102 267.147 136.409 263.426 165.372 277.732C194.335 292.039 209.987 318.955 200.332 337.852Z" fill="black"/>
<path d="M188.676 332.094C190.87 327.801 190.944 321.103 185.99 312.585C181.102 304.179 171.992 295.501 159.457 289.309C146.921 283.117 134.402 281.111 124.625 282.273C114.718 283.451 109.296 287.508 107.103 291.801C104.909 296.094 104.835 302.792 109.789 311.31C114.677 319.716 123.786 328.395 136.322 334.587L130.407 346.164L129.059 345.484C100.961 331.018 85.9428 304.645 95.4473 286.043C105.103 267.147 136.409 263.426 165.372 277.732C194.335 292.039 209.987 318.955 200.332 337.852C190.676 356.748 159.37 360.47 130.407 346.164L136.322 334.587C148.857 340.779 161.377 342.784 171.154 341.622C181.061 340.444 186.483 336.387 188.676 332.094Z" fill="black"/>
</svg>
