<svg width="515" height="490" viewBox="0 0 515 490" fill="none" xmlns="http://www.w3.org/2000/svg">
<path d="M460.046 151.563C402.174 58.6312 327.532 -2.67207 257.928 0.0896145C203.553 2.24707 64.3555 30.9508 10.7035 208.718C-27.9425 336.766 42.8609 463.569 146.071 486.036C220.103 502.151 295.945 461.564 343.41 389.095C391.15 422.296 439.712 432.521 473.871 411.249C532.725 374.598 526.536 258.333 460.046 151.563Z" fill="#FF56D8"/>
<path d="M257.928 0.0896144C327.532 -2.67207 402.173 58.6313 460.046 151.563C526.535 258.333 532.725 374.598 473.871 411.249L473.068 411.741C438.953 432.36 390.776 422.037 343.409 389.095C296.315 460.998 221.286 501.515 147.805 486.403L146.07 486.036C43.2636 463.657 -27.3888 337.754 10.2557 210.219L10.7029 208.719C63.9357 32.3402 201.382 2.70499 256.638 0.145278L257.928 0.0896144ZM351.196 55.7966C318.862 30.9377 287.295 18.9402 258.721 20.074C209.076 22.0438 80.097 48.0128 29.8504 214.497C-6.12334 333.69 60.7491 446.994 150.324 466.493C213.932 480.339 282.292 445.905 326.679 378.137L337.946 360.934L354.829 372.676C400.486 404.428 439.584 409.039 463.299 394.271C483.692 381.571 496.325 352.596 493.991 308.763C491.701 265.741 474.876 213.211 443.069 162.136C415.041 117.128 383.42 80.5709 351.196 55.7966Z" fill="black"/>
<path d="M212.59 252.185C219.972 256.281 220.076 270.202 212.821 283.279C205.567 296.355 193.701 303.636 186.318 299.541C178.936 295.445 178.832 281.524 186.087 268.447C193.341 255.37 205.207 248.089 212.59 252.185Z" fill="#FF56D8"/>
<path d="M186.087 268.447C193.341 255.371 205.207 248.089 212.59 252.184L212.93 252.384C219.974 256.715 219.963 270.406 212.821 283.279L212.478 283.887C205.198 296.58 193.585 303.572 186.318 299.541C178.936 295.445 178.832 281.524 186.087 268.447Z" fill="black"/>
</svg>
