<svg width="596" height="633" viewBox="0 0 596 633" fill="none" xmlns="http://www.w3.org/2000/svg">
<path d="M411.027 64.193C456.353 94.7975 466.23 156.922 433.453 200.685C399.492 246.029 369.771 287.181 341.132 328.696C383.63 373.619 394.097 438.941 356.186 492.14L343.418 510.059C307.12 560.994 237.945 584.921 181.756 556.042C158.115 543.891 136.756 530.445 115.628 514.356C104.537 505.911 95.6855 495.958 88.9872 485.011C64.9405 455.908 59.9844 414.346 79.5735 380.003C144.992 265.312 201.271 184.355 284.42 82.3068C315.361 44.3323 370.488 36.8207 411.027 64.193Z" fill="white"/>
<path d="M414.658 58.8033C463.122 91.5271 473.609 157.9 438.65 204.578C405.892 248.316 377.099 288.133 349.418 328.13C390.731 374.821 400.356 441.347 361.473 495.91L348.705 513.828C310.915 566.857 238.387 592.456 178.778 561.82C154.801 549.496 133.119 535.847 111.684 519.524C100.086 510.693 90.7713 500.275 83.6822 488.797C58.2417 457.724 53.0117 413.438 73.921 376.779C139.528 261.757 196.014 180.505 279.374 78.1979C312.489 37.5566 371.394 29.5915 414.658 58.8033ZM428.244 196.785C458.838 155.937 449.57 98.0621 407.383 69.5771C369.568 44.0443 318.221 51.1019 289.452 86.4091C206.515 188.198 150.442 268.861 85.2129 383.22C67.1649 414.862 71.5173 453.15 93.4697 480.23L93.9916 480.868L94.285 481.222L94.5251 481.615C100.803 491.875 109.11 501.224 119.559 509.181C140.381 525.036 161.415 538.279 184.72 550.257C237.49 577.379 303.312 555.125 338.118 506.284L350.886 488.365C386.728 438.069 377.098 376.176 336.403 333.16L332.785 329.336L335.775 325.002C364.47 283.407 394.241 242.185 428.244 196.785Z" fill="black"/>
<path d="M308.939 498.577C290.868 487.453 289.642 455.95 306.201 428.213C322.76 400.476 350.833 387.008 368.904 398.132C386.975 409.256 388.201 440.759 371.643 468.496C355.084 496.233 327.01 509.7 308.939 498.577Z" fill="black"/>
<path d="M315.603 487.414C319.709 489.942 326.38 490.547 335.264 486.285C344.031 482.079 353.405 473.686 360.572 461.681C367.739 449.676 370.731 437.355 370.348 427.517C369.96 417.548 366.346 411.822 362.241 409.294C358.135 406.767 351.464 406.162 342.58 410.424C333.813 414.63 324.438 423.022 317.271 435.027L306.2 428.213L306.985 426.923C323.634 400.061 351.115 387.182 368.904 398.132C386.975 409.256 388.201 440.759 371.643 468.496C355.084 496.233 327.011 509.7 308.94 498.577C290.868 487.453 289.642 455.95 306.2 428.213L317.271 435.027C310.104 447.032 307.113 459.353 307.496 469.192C307.884 479.161 311.498 484.887 315.603 487.414Z" fill="black"/>
</svg>
