<svg width="441" height="572" viewBox="0 0 441 572" fill="none" xmlns="http://www.w3.org/2000/svg">
<path d="M63.3077 148.528C140.164 31.2511 255.502 -29.0664 320.92 13.8051C374.179 48.7084 377.93 141.246 336.012 237.724C418.421 289.778 460.337 380.009 431.948 459.119C397.917 553.952 275.743 596.888 159.066 555.018C64.58 521.111 6.32147 441.808 0.617287 362.752C-3.68306 303.153 14.1978 223.466 63.3077 148.528Z" fill="#FF56D8"/>
<path d="M63.3077 148.528C140.164 31.2512 255.502 -29.0662 320.92 13.8049C374.179 48.7082 377.93 141.246 336.012 237.724C418.421 289.777 460.337 380.009 431.948 459.119C397.917 553.952 275.743 596.888 159.067 555.018C64.5802 521.111 6.32144 441.808 0.617255 362.752C-3.68297 303.153 14.1979 223.465 63.3077 148.528ZM309.957 30.5335C286.047 14.8642 249.408 15.9616 205.672 38.8342C162.606 61.3564 116.952 103.158 80.0353 159.491C33.1171 231.084 16.6077 306.462 20.5655 361.314C25.6454 431.715 78.0432 504.694 165.822 536.194C275.937 575.708 384.065 533.342 413.124 452.364C437.418 384.664 402.401 303.315 325.331 254.634L310.837 245.478L317.668 229.754C337.706 183.634 346.318 139.545 344.194 103.863C342.06 68.0244 329.449 43.3074 309.957 30.5335Z" fill="black"/>
<path d="M202.591 352.083C196.233 357.637 199.054 371.269 208.892 382.532C218.73 393.795 231.859 398.423 238.218 392.869C244.576 387.315 241.755 373.682 231.917 362.419C222.079 351.157 208.95 346.529 202.591 352.083Z" fill="#FF56D8"/>
<path d="M231.918 362.42C222.08 351.157 208.95 346.528 202.591 352.082L202.3 352.348C196.322 358.061 199.207 371.445 208.892 382.532L209.355 383.055C219.138 393.937 231.959 398.336 238.218 392.869C244.576 387.315 241.755 373.682 231.918 362.42Z" fill="black"/>
</svg>
