<svg width="553" height="540" viewBox="0 0 553 540" fill="none" xmlns="http://www.w3.org/2000/svg">
<path d="M63.9681 403.853C18.5705 331.561 22.0766 224.117 95.2321 135.854C174.337 40.4135 297.224 11.746 369.708 71.8229C416.075 110.254 430.583 175.691 414.311 242.841C463.089 262.254 496.158 295.09 500.505 335.237C508.467 408.764 417.072 478.964 296.37 492.033C187.127 503.862 99.17 459.909 63.9681 403.853Z" fill="#FF56D8"/>
<path d="M63.9679 403.852C18.5704 331.56 22.0768 224.117 95.2322 135.854C174.337 40.4136 297.224 11.746 369.708 71.8229L370.788 72.7287C416.299 111.277 430.456 176.216 414.311 242.841C463.089 262.254 496.159 295.09 500.506 335.237L500.594 336.098C507.696 408.737 418.024 477.921 299.194 491.716L296.371 492.033C187.981 503.77 100.546 460.593 64.8029 405.165L63.9679 403.852ZM110.63 148.617C42.4152 230.919 40.5588 328.968 80.9051 393.217C111.083 441.273 190.621 483.366 294.217 472.149C351.531 465.943 400.926 446.237 434.504 420.446C468.409 394.403 483.565 364.574 480.621 337.39C477.409 307.724 452.31 279.49 406.915 261.423L390.785 255.003L394.873 238.131C409.937 175.964 395.712 119.354 356.945 87.2215C326.554 62.0322 284.52 54.4933 239.496 64.9967C194.454 75.5044 147.65 103.952 110.63 148.617Z" fill="black"/>
</svg>
