<svg width="437" height="460" viewBox="0 0 437 460" fill="none" xmlns="http://www.w3.org/2000/svg">
<path d="M324.33 87.6424C365.118 90.9932 396.035 124.595 400.157 165.157C405.913 221.81 358.205 267.929 301.527 268.413C291.533 268.498 281.805 268.829 272.226 269.423C279.547 291.954 279.198 316.878 269.014 340.352C251.593 380.505 209.39 406.428 166.781 395.149C138.882 387.764 114.514 377.643 89.6807 363.268C88.1561 362.547 86.6396 361.782 85.1339 360.969C46.8917 340.325 26.7973 295.726 41.4631 254.632C57.6663 209.23 76.338 174.077 103.505 137.952C114.784 122.953 130.122 113.046 147 108.212C150.088 106.834 153.302 105.642 156.633 104.655C215.276 87.2825 264.039 82.6896 324.33 87.6424Z" fill="white"/>
<path d="M324.86 81.1661C369.098 84.8003 402.218 121.162 406.622 164.502C412.821 225.521 361.501 274.404 301.58 274.915C294.492 274.975 287.543 275.162 280.692 275.478C285.977 297.238 284.624 320.701 274.975 342.94C256.549 385.41 211.453 413.699 165.116 401.434C136.737 393.922 111.898 383.616 86.6481 369.024C85.1078 368.291 83.5716 367.515 82.0445 366.691C41.3185 344.706 19.4702 296.916 35.3396 252.449C51.7476 206.473 70.7208 170.732 98.3083 134.047C110.393 117.977 126.794 107.334 144.779 102.09C147.995 100.676 151.333 99.4482 154.785 98.4253C214.228 80.8154 263.8 76.1501 324.86 81.1661ZM393.688 165.816C389.849 128.032 361.133 97.1892 323.796 94.1219C264.275 89.2324 216.32 93.7532 158.478 110.889C155.421 111.794 152.476 112.887 149.649 114.149L149.229 114.336L148.789 114.462C133.186 118.932 119.076 128.06 108.698 141.861C81.9523 177.426 63.5821 211.99 47.5838 256.818C34.1217 294.54 52.4618 335.949 88.22 355.251C89.6211 356.008 91.0352 356.721 92.4595 357.395L92.7026 357.51L92.9353 357.645C117.274 371.733 141.107 381.632 168.442 388.868C207.323 399.159 246.633 375.603 263.049 337.766C272.564 315.835 272.904 292.55 266.042 271.432L263.451 263.455L271.822 262.936C281.524 262.335 291.368 262.001 301.47 261.915C354.906 261.459 399 218.101 393.688 165.816Z" fill="black"/>
</svg>
