<svg width="450" height="557" viewBox="0 0 450 557" fill="none" xmlns="http://www.w3.org/2000/svg">
<path d="M195.418 5.88696C263.647 -22.6509 361.25 55.3254 413.419 180.052C439.746 242.994 451.206 305.139 449.638 355.883C449.073 374.192 447.619 392.79 444.328 411.36C426.745 510.569 313.542 573.456 191.482 551.823C69.4225 530.191 -15.2726 432.23 2.30999 333.021C14.0878 266.566 68.7702 216.41 140.279 197.036C123.302 105.706 143.175 27.739 195.418 5.88696Z" fill="#FF56D8"/>
<path d="M195.418 5.88694C263.647 -22.6509 361.25 55.3256 413.419 180.052C439.746 242.994 451.207 305.139 449.639 355.883L449.522 359.32C448.884 376.517 447.413 393.95 444.328 411.36C426.745 510.569 313.542 573.456 191.482 551.823C69.4227 530.19 -15.2726 432.229 2.30998 333.021C14.0879 266.566 68.7705 216.411 140.279 197.036C123.302 105.707 143.175 27.7391 195.418 5.88694ZM297.958 51.1213C260.937 21.5443 227.361 14.2058 203.136 24.3381C184.553 32.1108 169.532 50.7314 161.157 80.7776C152.804 110.744 151.853 149.863 159.943 193.381L163.314 211.517L145.509 216.341C79.504 234.224 32.1058 279.51 22.0033 336.511C6.98953 421.225 79.7781 511.715 194.972 532.131C310.167 552.547 409.621 492.584 424.635 407.869C427.706 390.54 429.102 372.961 429.649 355.266C431.116 307.775 420.358 248.469 394.969 187.77C369.925 127.894 334.317 80.1693 297.958 51.1213Z" fill="black"/>
<path d="M230.834 356.924C217.057 351.109 203.226 352.7 199.943 360.478L199.798 360.845C196.927 368.599 205.383 379.367 218.946 385.092L219.591 385.359C233.152 390.855 246.605 389.193 249.836 381.536C253.119 373.758 244.611 362.739 230.834 356.924Z" fill="black"/>
</svg>
