<svg width="480" height="537" viewBox="0 0 480 537" fill="none" xmlns="http://www.w3.org/2000/svg">
<path d="M90.8894 33.2128C132.712 5.05914 189.369 14.4582 219.342 55.0241C297.121 160.292 351.918 241.483 419.206 351.707C445.556 394.873 432.844 451.017 390.912 479.245C358.677 500.944 318.435 500.143 287.449 481.445C279.736 486.576 271.411 491.031 262.516 494.687C189.596 524.665 106.182 489.853 76.2039 416.934L69.5536 400.759C44.4387 339.668 64.7991 271.212 114.944 232.982C100.608 213.419 85.5891 193.571 69.5707 172.985C35.2127 128.829 44.429 64.4887 90.8894 33.2128Z" fill="white"/>
<path d="M87.2621 27.8238C131.932 -2.24611 192.505 7.76234 224.573 51.1644C302.461 156.581 357.366 237.93 424.756 348.323C452.947 394.503 439.316 454.5 394.544 484.64C361.307 507.013 320.146 506.969 287.641 489.059C280.548 493.504 272.988 497.413 264.99 500.701C188.75 532.044 101.538 495.647 70.1945 419.408L70.1944 419.409L63.5441 403.234L63.5442 403.233C38.1335 341.422 57.2497 272.415 106.008 231.799C92.83 213.917 79.0561 195.759 64.4435 176.979C27.8518 129.952 37.5731 61.2734 87.2621 27.8238ZM214.117 58.8896C186.24 21.1598 133.498 12.37 94.5217 38.6074C51.2903 67.7097 42.5797 127.711 74.7038 168.996C90.7564 189.627 105.813 209.525 120.189 229.142L123.96 234.287L118.887 238.153C71.0244 274.644 51.5997 339.989 75.567 398.289L75.5679 398.289L82.2182 414.465L82.2181 414.466C110.831 484.065 190.448 517.29 260.047 488.678C268.543 485.185 276.491 480.932 283.851 476.036L287.282 473.754L290.809 475.883C319.764 493.356 357.274 494.057 387.284 473.856C426.377 447.54 438.171 395.248 413.661 355.097C346.477 245.042 291.786 164.01 214.117 58.8896Z" fill="black"/>
<path d="M120.263 436.206C129.319 417.015 160.493 412.311 189.892 425.699C219.291 439.087 235.782 465.498 226.726 484.689C217.67 503.88 186.496 508.584 157.097 495.196C127.698 481.808 111.207 455.397 120.263 436.206Z" fill="black"/>
<path d="M132.094 441.594C130.037 445.954 130.173 452.651 135.392 461.009C140.542 469.257 149.921 477.645 162.645 483.439C175.369 489.234 187.945 490.844 197.681 489.375C207.546 487.887 212.837 483.661 214.895 479.301C216.952 474.941 216.815 468.244 211.596 459.886C206.446 451.638 197.068 443.25 184.344 437.455L189.892 425.698L191.261 426.336C219.8 439.911 235.64 465.798 226.726 484.689C217.669 503.88 186.496 508.584 157.097 495.196C127.698 481.808 111.207 455.397 120.263 436.206C129.319 417.015 160.493 412.31 189.892 425.698L184.344 437.455C171.62 431.661 159.043 430.051 149.308 431.52C139.442 433.009 134.151 437.234 132.094 441.594Z" fill="black"/>
</svg>
