<svg width="515" height="506" viewBox="0 0 515 506" fill="none" xmlns="http://www.w3.org/2000/svg">
<path d="M76.1702 152.932C105.643 124.725 136.083 107.654 174.591 96.9126C224.351 83.0324 274.079 112.146 298.881 157.152L322.062 199.216C322.965 200.855 323.808 202.504 324.596 204.161C328.493 202.608 332.387 201.044 336.286 199.465C388.176 178.451 448.347 202.943 468.643 255.216C485.294 298.102 469.867 347.229 429.375 369.221C370.234 401.341 317.602 420.648 249.45 436.204C246.132 436.961 242.814 437.522 239.507 437.899C205.82 449.262 167.937 441.704 144.192 413.627C123.615 389.296 107.474 365.239 93.3544 337.865C90.0887 333.708 87.093 329.198 84.407 324.324L62.8741 285.25C39.2366 242.358 40.4324 187.136 76.1702 152.932Z" fill="white"/>
<path d="M71.6769 148.237C101.934 119.279 133.323 101.678 172.846 90.6531C226.287 75.7461 278.746 107.149 304.574 154.017L327.672 195.931C329.73 195.105 331.788 194.275 333.847 193.441C388.95 171.127 453.037 197.064 474.703 252.866C492.419 298.495 476.123 351.23 432.478 374.934C372.773 407.36 319.578 426.866 250.897 442.543C247.574 443.301 244.25 443.874 240.935 444.275C205.258 456.05 164.787 448.044 139.23 417.826C118.483 393.294 102.145 368.987 87.8596 341.388C84.5251 337.09 81.464 332.451 78.7148 327.463L57.182 288.389C32.5352 243.665 33.2495 185.015 71.6769 148.237ZM176.339 103.175C138.846 113.634 109.353 130.173 80.6653 157.629C47.6172 189.259 45.939 241.054 68.5672 282.115L90.1001 321.189L90.5756 322.041C92.8094 325.999 95.2589 329.689 97.8983 333.121L98.4668 333.852L98.8486 334.338L99.132 334.888C113.02 361.811 128.885 385.461 149.156 409.431C170.594 434.78 204.802 442.15 235.949 432.226L237.43 431.741L238.085 431.52L238.773 431.441C241.844 431.092 244.924 430.571 248.004 429.868C315.628 414.433 367.696 395.324 426.274 363.51C463.612 343.232 478.169 297.712 462.584 257.57C443.658 208.826 387.405 185.779 338.727 205.491C334.816 207.075 330.911 208.644 327.004 210.201L321.347 212.455L318.729 206.957C317.992 205.411 317.208 203.876 316.369 202.355L293.189 160.291C269.412 117.146 222.417 90.3219 176.339 103.175Z" fill="black"/>
<path d="M291.615 194.038C276.824 209.254 245.809 203.593 222.342 181.393C198.875 159.193 191.842 128.862 206.633 113.645C221.424 98.429 252.438 104.09 275.905 126.29C299.372 148.49 306.406 178.822 291.615 194.038Z" fill="black"/>
<path d="M282.171 185.104C285.531 181.647 287.574 175.267 285.348 165.668C283.151 156.196 277.001 145.22 266.844 135.612C256.687 126.003 245.313 120.401 235.627 118.633C225.812 116.841 219.437 119.122 216.077 122.579C212.716 126.036 210.674 132.415 212.9 142.014C215.096 151.487 221.246 162.463 231.403 172.072L222.342 181.393L221.254 180.347C198.66 158.249 192.073 128.624 206.633 113.645C221.424 98.4291 252.438 104.09 275.905 126.29C299.372 148.49 306.406 178.821 291.615 194.038C276.824 209.254 245.809 203.593 222.342 181.393L231.403 172.072C241.56 181.68 252.935 187.282 262.62 189.05C272.435 190.841 278.811 188.561 282.171 185.104Z" fill="black"/>
</svg>
