<svg width="430" height="451" viewBox="0 0 430 451" fill="none" xmlns="http://www.w3.org/2000/svg">
<path d="M97.75 29.7068C184.423 -21.6138 289.294 -4.76791 331.986 67.3327C353.636 103.895 355.136 147.645 340.055 188.584C362.004 187.495 382.455 193.148 398.629 206.306C443.627 242.916 438.473 323.766 387.117 386.889C346.027 437.394 288.986 454.474 243.131 450.016C193.399 445.182 129.634 420.797 79.3511 369.352C23.0147 311.712 -1.66506 236.83 0.0869047 184.053C2.00329 126.324 36.6419 65.89 97.75 29.7068Z" fill="#FF56D8"/>
<path d="M97.7499 29.7068C184.423 -21.6138 289.294 -4.76791 331.986 67.3327C353.636 103.895 355.136 147.645 340.055 188.584C362.004 187.495 382.455 193.148 398.629 206.306C443.627 242.916 438.473 323.766 387.117 386.889L386.151 388.067C345.46 437.269 289.517 454.173 244.208 450.117L243.131 450.016C193.788 445.22 130.629 421.177 80.5322 370.552L79.3515 369.351C23.4554 312.163 -1.27736 237.999 0.0506724 185.295L0.0868052 184.053C1.98822 126.775 36.1025 66.8342 96.3222 30.5593L97.7499 29.7068ZM314.777 77.5222C279.389 17.7561 188.21 -0.613228 107.94 46.9158C52.2472 79.8927 21.7486 134.334 20.0761 184.717C18.5143 231.764 40.9323 301.431 93.6542 355.372C140.362 403.16 199.614 425.692 245.066 430.11C284.736 433.966 335.041 419.208 371.604 374.267C394.96 345.559 407.258 313.451 409.047 285.383C410.839 257.264 402.181 234.979 386.007 221.82C374.284 212.283 358.923 207.672 341.046 208.559L310.83 210.058L321.288 181.67C334.637 145.434 332.884 108.101 314.777 77.5222Z" fill="black"/>
<path d="M204.041 141.539C209.893 147.624 205.9 160.96 195.122 171.327C184.344 181.694 170.862 185.165 165.01 179.08C159.157 172.995 163.151 159.659 173.929 149.292C184.707 138.925 198.189 135.454 204.041 141.539Z" fill="#D9D9D9"/>
<path d="M173.928 149.292C184.706 138.926 198.189 135.454 204.041 141.539L204.308 141.829C209.767 148.039 205.732 161.123 195.122 171.327L194.616 171.808C183.925 181.8 170.771 185.069 165.01 179.08C159.158 172.995 163.151 159.659 173.928 149.292Z" fill="black"/>
</svg>
