<svg width="460" height="570" viewBox="0 0 460 570" fill="none" xmlns="http://www.w3.org/2000/svg">
<path d="M248.661 9.49556C339.837 -18.698 432.17 18.0156 454.892 91.4975C475.593 158.444 431.374 232.81 354.397 266.83C393.988 318.034 403.086 382.804 371.946 431.452C345.659 472.516 296.935 492.352 244.444 488.807C190.624 551.927 127.579 583.121 76.5901 563.907C-4.44998 533.368 -24.3426 387.065 32.1585 237.129C76.4582 119.573 158.067 45.6806 225.296 18.225C233.191 15.0008 240.583 11.9937 248.661 9.49556Z" fill="#FF56D8"/>
<path d="M248.661 9.49549C339.837 -18.698 432.169 18.0159 454.892 91.4975C475.593 158.444 431.373 232.81 354.397 266.829C393.988 318.034 403.086 382.804 371.946 431.452C345.659 472.516 296.935 492.352 244.444 488.807C190.624 551.927 127.579 583.121 76.59 563.907C-4.44978 533.367 -24.3427 387.064 32.1584 237.129C76.4581 119.573 158.067 45.6806 225.296 18.225C233.191 15.0007 240.583 11.9936 248.661 9.49549ZM435.784 97.4066C417.452 38.1207 339.249 2.41867 254.571 28.6029C247.455 30.8032 240.844 33.4791 232.858 36.7406C171.257 61.8976 93.402 131.328 50.8742 244.182C23.5612 316.662 15.1027 387.351 22.6144 442.597C30.2483 498.741 53.2701 533.746 83.6428 545.192C102.836 552.424 125.666 550.77 151.092 539.066C176.625 527.312 203.628 505.852 229.225 475.831L235.753 468.175L245.791 468.853C292.748 472.024 333.613 454.238 355.102 420.669C380.497 380.997 374.49 325.513 338.575 279.064L322.953 258.86L346.313 248.537C417.373 217.132 452.514 151.508 435.784 97.4066Z" fill="black"/>
</svg>
