<svg width="501" height="631" viewBox="0 0 501 631" fill="none" xmlns="http://www.w3.org/2000/svg">
<path d="M358.133 76.9999C414.158 75.1144 461.104 119.003 462.99 175.028C464.378 216.283 440.945 252.615 406.123 269.657C415.906 301.45 409.881 337.402 386.925 364.796C357.577 399.817 309.619 410.039 269.619 393.124C249.952 430.593 228.122 467.959 202.459 508.413C177.858 547.191 127.776 560.274 86.6432 539.983C37.2222 515.603 20.5692 453.664 49.1391 406.63C104.024 316.272 141.607 240.082 180.52 140.002C196.212 99.6465 236.376 75.9851 276.816 79.8134C278.131 79.7184 279.453 79.6482 280.782 79.6035L358.133 76.9999Z" fill="white"/>
<path d="M357.915 70.5013C417.528 68.495 467.48 115.194 469.487 174.807C470.9 216.782 448.164 253.951 413.801 272.979C422.033 305.455 415.085 341.31 391.907 368.969L391.907 368.97C362.026 404.626 314.026 416.113 272.662 401.283C253.608 437.215 232.519 473.163 207.948 511.894C181.503 553.58 127.767 567.515 83.7685 545.81C30.7803 519.671 13.1204 453.406 43.5847 403.253C98.2708 313.223 135.685 237.374 174.462 137.645C191.145 94.7411 233.758 69.4517 276.889 73.2916C278.108 73.2096 279.333 73.1463 280.564 73.1049L357.915 70.5013ZM456.494 175.244C454.729 122.807 410.789 81.7296 358.352 83.4944L281.001 86.098C279.756 86.1399 278.517 86.2054 277.285 86.2944L276.745 86.3333L276.204 86.2826C238.638 82.7265 201.211 104.727 186.579 142.355C147.53 242.785 109.78 319.317 54.6957 410.003C28.0202 453.919 43.6657 511.532 89.5192 534.152C127.786 553.029 174.216 540.798 196.971 504.929C222.556 464.599 244.293 427.387 263.865 390.101L266.644 384.807L272.152 387.135C309.595 402.969 354.481 393.39 381.943 360.62C403.425 334.985 409.073 301.343 399.911 271.566L398.277 266.258L403.266 263.816C435.873 247.858 457.793 213.848 456.494 175.244Z" fill="black"/>
</svg>
