<svg width="445" height="562" viewBox="0 0 445 562" fill="none" xmlns="http://www.w3.org/2000/svg">
<path d="M137.927 77.0219C181.399 24.8166 258.961 17.7367 311.167 61.2082C317.31 66.3235 322.827 71.911 327.712 77.8734C349.855 76.2776 372.55 82.9133 390.815 98.7953C421.921 125.844 429.678 171.352 407.947 206.445C332.786 327.82 266.956 403.926 158.472 493.649C126.81 519.835 80.912 518.342 49.9533 491.422C9.50425 456.249 11.0469 393.379 50.8749 357.684C73.8585 337.086 95.8378 316.09 117.22 294.003C65.067 250.522 58.0073 172.999 101.463 120.812L137.927 77.0219Z" fill="white"/>
<path d="M132.931 72.8605C178.7 17.8967 260.361 10.4429 315.325 56.2116C320.905 60.8579 325.997 65.878 330.595 71.2051C353.29 70.3669 376.355 77.6065 395.079 93.8881C428.497 122.946 436.945 171.958 413.472 209.865C337.95 331.823 271.657 408.47 162.613 498.656C128.399 526.953 78.9435 525.244 45.6864 496.325C2.09106 458.417 3.99331 390.97 46.5357 352.842C67.7159 333.86 88.0252 314.549 107.793 294.361C57.7172 247.873 52.2199 169.788 96.4666 116.651L132.931 72.8605ZM307.006 66.201C257.559 25.0267 184.095 31.7328 142.921 81.1794L106.456 124.97C65.2973 174.398 71.9838 247.826 121.381 289.009L126.758 293.492L121.888 298.522C100.389 320.731 78.2971 341.833 55.2114 362.523C18.098 395.785 16.915 454.078 54.2177 486.515C82.8778 511.436 125.22 512.713 154.329 488.638C262.252 399.378 327.619 323.813 402.419 203.022L402.883 202.263C422.297 170.086 415.118 128.541 386.548 103.699C369.666 89.0187 348.702 82.8756 328.178 84.3547L324.817 84.5966L322.682 81.9907C318.058 76.3453 312.83 71.051 307.006 66.201Z" fill="black"/>
<path d="M213.048 54.8628C227.248 70.6317 219.54 101.202 195.83 123.142C172.121 145.083 141.389 150.087 127.189 134.318C112.988 118.549 120.697 87.979 144.406 66.0381C168.116 44.0972 198.848 39.0938 213.048 54.8628Z" fill="black"/>
<path d="M203.506 63.6923C200.28 60.11 194.05 57.648 184.325 59.2314C174.727 60.794 163.367 66.2022 153.106 75.6984C142.844 85.1947 136.498 96.1716 134.091 105.718C131.651 115.393 133.504 121.905 136.73 125.488C139.956 129.07 146.185 131.532 155.911 129.949C165.509 128.386 176.869 122.979 187.131 113.483L195.831 123.143L194.714 124.159C171.165 145.235 141.167 149.84 127.188 134.318C112.988 118.549 120.697 87.979 144.406 66.0382C168.115 44.0973 198.847 39.094 213.048 54.8627C227.248 70.6316 219.54 101.202 195.831 123.143L187.131 113.483C197.393 103.986 203.738 93.0088 206.145 83.4619C208.585 73.7875 206.732 67.2748 203.506 63.6923Z" fill="black"/>
</svg>
