<svg width="444" height="610" viewBox="0 0 444 610" fill="none" xmlns="http://www.w3.org/2000/svg">
<path d="M13.9389 119.438C56.6308 15.4461 184.511 -29.1038 299.567 19.9335C411.3 67.5546 467.092 184.996 434.038 287.959C417.375 339.864 390.804 401.611 348.23 460.394C256.018 587.712 77.9554 634.156 40.2524 597.96C-0.818356 558.53 28.4333 470.119 106.22 375.891C17.341 318.124 -23.6521 211.005 13.9389 119.438Z" fill="#FF56D8"/>
<path d="M13.9389 119.437C56.6307 15.4458 184.511 -29.1037 299.567 19.9335C411.3 67.5546 467.092 184.996 434.038 287.959L433.25 290.399C416.542 341.793 390.139 402.53 348.231 460.393L347.146 461.882C254.992 587.579 79.193 633.653 40.7006 598.38L40.2523 597.96C-0.818214 558.53 28.4337 470.118 106.22 375.892C17.3413 318.124 -23.6522 211.005 13.9389 119.437ZM291.725 38.3319C184.993 -7.15753 70.1413 35.1998 32.4408 127.033C-0.875275 208.187 34.8397 305.643 117.12 359.122L135.913 371.338L121.644 388.624C83.6994 434.588 58.6436 477.934 47.7856 513.339C36.7151 549.436 41.7353 571.658 54.1039 583.532C55.2952 584.676 58.3837 586.682 64.9145 588.149C71.2974 589.584 79.7819 590.227 90.2445 589.668C111.163 588.549 137.785 582.744 166.719 571.79C224.663 549.853 288.696 508.497 332.033 448.662C373.052 392.026 398.791 332.323 414.996 281.846C444.567 189.73 394.961 82.3317 291.725 38.3319Z" fill="black"/>
<path d="M241.766 214.721C234.841 220.964 220.263 216.082 209.205 203.816C198.146 191.551 194.795 176.547 201.719 170.304C208.644 164.061 223.222 168.943 234.28 181.208C245.339 193.474 248.69 208.478 241.766 214.721Z" fill="#FF56D8"/>
<path d="M234.792 181.785C245.44 193.94 248.582 208.575 241.766 214.721L241.436 215.005C234.387 220.81 220.091 215.891 209.205 203.817L208.692 203.24C198.044 191.085 194.903 176.449 201.719 170.304C208.644 164.061 223.222 168.943 234.28 181.208L234.792 181.785Z" fill="black"/>
</svg>
