<svg width="550" height="563" viewBox="0 0 550 563" fill="none" xmlns="http://www.w3.org/2000/svg">
<path d="M52.8976 5.67496C105.413 -17.7094 181.878 32.9489 245.334 124.96C261.401 119.054 278.795 115.096 297.093 113.499C313.368 112.078 329.021 111.159 344.355 111.589C412.448 113.499 488.968 171.687 528.044 278.346C569.365 391.13 549.251 502.202 483.118 526.431C441.108 541.822 390.634 518.466 348.809 470.469C342.916 513.196 326.056 544.389 298.287 556.755C228.913 587.646 117.742 489.325 49.9792 337.149C-17.7832 184.973 -16.4765 36.5667 52.8976 5.67496Z" fill="#FF56D8"/>
<path d="M52.8973 5.67495C105.002 -17.5268 180.684 32.162 243.845 122.812L245.334 124.961C260.899 119.24 277.709 115.345 295.38 113.655L297.093 113.499C313.368 112.079 329.021 111.159 344.354 111.589C412.448 113.499 488.967 171.687 528.044 278.346C569.365 391.13 549.251 502.201 483.118 526.431L482.132 526.784C440.319 541.456 390.308 518.091 348.809 470.469C342.916 513.196 326.056 544.39 298.287 556.755L297.473 557.11C228.59 586.644 119.209 490.263 51.5751 340.706L49.9794 337.15C-17.783 184.973 -16.4767 36.5667 52.8973 5.67495ZM134.328 38.9513C103.21 19.2849 78.4192 16.2036 61.0331 23.9455C37.8878 34.2519 20.5265 67.6262 20.0116 126.107C19.514 182.626 35.2596 254.926 68.2499 329.014C101.24 403.101 144.44 463.177 186.778 500.621C230.586 539.365 267.006 548.791 290.151 538.484C308.547 530.293 323.477 507.759 328.997 467.736L335.004 424.184L363.888 457.33C403.897 503.244 446.149 518.675 476.238 507.652C499.901 498.982 518.706 473.392 526.196 432.033C533.588 391.214 528.92 338.874 509.265 285.226C471.955 183.389 401.028 133.186 343.794 131.581C329.584 131.183 314.808 132.029 298.832 133.423C282.291 134.867 266.633 138.44 252.234 143.733L237.676 149.084L228.87 136.316C198.14 91.7572 164.98 58.3231 134.328 38.9513Z" fill="black"/>
</svg>
