<svg width="649" height="731" viewBox="0 0 649 731" fill="none" xmlns="http://www.w3.org/2000/svg">
<path d="M94.3257 251.627C66.1071 205.384 82.5448 144.545 130.914 120.043C172.726 98.863 223.942 112.613 248.796 152.388C296.448 228.647 334.015 294.27 367.926 362.569C405.973 331.778 461.806 332.252 499.43 365.966L566.707 426.253C608.454 463.663 611.971 527.833 574.561 569.58C543.244 604.529 493.173 612.685 453.202 592.467C448.571 620.181 431.018 645.247 404.287 658.787C355.735 683.382 296.752 660.532 276.105 610.226C221.032 476.047 171.12 377.473 94.3257 251.627Z" fill="white"/>
<path d="M88.7758 255.012C58.6361 205.62 76.1316 140.505 127.975 114.243C172.73 91.5724 227.636 106.259 254.307 148.941C300.415 222.729 337.143 286.654 370.263 352.7C410.415 324.895 465.799 327.102 503.766 361.124L571.044 421.41C615.465 461.216 619.206 529.495 579.4 573.917C548.03 608.925 498.988 618.659 457.87 601.745C451.064 628.13 433.178 651.437 407.224 664.584C355.194 690.94 292.138 666.409 270.091 612.692C215.15 478.834 165.393 380.567 88.7758 255.012ZM133.85 125.84C88.9562 148.582 73.5761 205.145 99.8736 248.24C176.845 374.376 226.912 473.258 282.117 607.757C301.365 654.651 356.274 675.82 401.349 652.987C426.194 640.402 442.492 617.117 446.79 591.394L448.246 582.675L456.134 586.665C493.548 605.589 540.413 597.944 569.719 565.241C604.733 526.166 601.442 466.106 562.368 431.092L495.091 370.805C459.882 339.255 407.62 338.804 372.014 367.621L365.71 372.722L362.103 365.458C328.311 297.399 290.857 231.965 243.283 155.831C220.246 118.965 172.72 106.151 133.85 125.84Z" fill="black"/>
</svg>
