<svg width="456" height="639" viewBox="0 0 456 639" fill="none" xmlns="http://www.w3.org/2000/svg">
<path d="M174.31 209.534C239.644 181.383 329.04 243.114 373.981 347.414C418.922 451.714 402.39 559.087 337.055 587.238C271.721 615.39 182.325 553.659 137.384 449.359C92.4432 345.059 108.975 237.686 174.31 209.534Z" fill="#FF56D8"/>
<path d="M182.224 227.902C158.155 238.273 140.337 264.475 134.261 303.935C128.235 343.073 134.531 392.194 155.752 441.445C176.973 490.696 208.351 529.009 240.937 551.511C273.79 574.197 305.072 579.242 329.141 568.871C353.21 558.5 371.029 532.299 377.105 492.838C383.131 453.7 376.835 404.579 355.614 355.328L373.982 347.414L375.023 349.859C418.661 453.387 401.879 559.307 337.055 587.238C271.721 615.39 182.325 553.659 137.384 449.359C92.4434 345.059 108.975 237.686 174.31 209.534L175.076 209.209C240.342 181.866 329.216 243.521 373.982 347.414L355.614 355.328C334.393 306.078 303.014 267.764 270.429 245.263C237.576 222.576 206.293 217.531 182.224 227.902Z" fill="black"/>
<path d="M89.7844 38.5034C40.1978 59.7685 14.5987 111.049 32.6074 153.043C50.6161 195.036 105.413 211.839 155 190.574C204.586 169.309 230.185 118.028 212.177 76.0349C194.168 34.0417 139.371 17.2383 89.7844 38.5034Z" fill="#FF56D8"/>
<path d="M97.6671 56.8844C140.085 38.6938 181.318 54.8216 193.796 83.9176C206.273 113.014 189.535 154.002 147.117 172.193C104.699 190.384 63.4663 174.256 50.9885 145.16L32.6074 153.043L33.036 154.022C51.4718 195.296 105.8 211.673 155 190.574C204.586 169.309 230.185 118.028 212.177 76.0349L211.748 75.0552C193.312 33.7815 138.984 17.4045 89.7844 38.5034L88.6266 39.0073C39.8004 60.5693 14.7395 111.378 32.6074 153.043L50.9885 145.16C38.5108 116.064 55.2494 75.0751 97.6671 56.8844Z" fill="black"/>
</svg>
