<svg width="531" height="648" viewBox="0 0 531 648" fill="none" xmlns="http://www.w3.org/2000/svg">
<path d="M242.233 210.917C273.316 174.567 327.1 168.781 366.052 196.535C410.162 227.964 418.493 289.988 385.193 332.703C324.948 409.983 279.052 474.519 225.716 556.619C196.131 602.159 134.623 614.531 90.3951 583.018C51.4881 555.296 39.23 502.707 63.3509 461.471C119.819 364.934 169.857 295.555 242.233 210.917Z" fill="white"/>
<path d="M86.6226 588.314C45.0796 558.714 31.8567 502.439 57.7394 458.19C114.414 361.301 164.681 291.607 237.292 206.694C270.633 167.704 328.216 161.597 369.823 191.243C417.018 224.87 425.838 291.138 390.319 336.701C330.19 413.831 284.402 478.215 231.166 560.161C199.611 608.733 133.931 622.022 86.6226 588.314ZM94.1663 577.726C135.313 607.044 192.649 595.588 220.265 553.08C273.7 470.827 319.705 406.138 380.067 328.708C411.146 288.842 403.304 231.061 362.28 201.83C325.983 175.969 275.999 181.433 247.173 215.143C175.033 299.505 125.223 368.572 68.9612 464.754C46.6023 502.979 57.8957 551.883 94.1663 577.726Z" fill="black"/>
<path d="M470.779 44.5219C437.649 19.9319 390.813 26.9151 366.168 60.1193C341.523 93.3235 348.402 140.175 381.532 164.765C414.662 189.355 461.498 182.372 486.143 149.168C510.788 115.963 503.909 69.1119 470.779 44.5219Z" fill="white"/>
<path d="M463.031 54.9613C490.374 75.256 496.086 113.959 475.704 141.42C455.322 168.88 416.623 174.621 389.28 154.326C361.937 134.032 356.225 95.3282 376.607 67.8672L366.168 60.1193L365.596 60.9005C341.633 94.0546 348.661 140.367 381.532 164.765C414.662 189.355 461.498 182.372 486.143 149.168C510.788 115.964 503.909 69.1125 470.779 44.5225C437.649 19.9325 390.813 26.9151 366.168 60.1193L376.607 67.8672C396.989 40.4063 435.688 34.6667 463.031 54.9613Z" fill="black"/>
</svg>
