<svg width="492" height="599" viewBox="0 0 492 599" fill="none" xmlns="http://www.w3.org/2000/svg">
<path d="M299.468 207.128C235.897 183.384 152.003 250.767 112.086 357.634C111.728 358.594 111.377 359.554 111.028 360.513C77.5141 353.466 45.3255 360.074 23.7476 381.704C-16.0071 421.554 -4.68973 497.299 49.0259 550.886C86.087 587.858 133.151 598.092 172.634 598.374C233.716 598.809 305.996 540.815 342.299 443.623C382.216 336.756 363.04 230.873 299.468 207.128Z" fill="#FF56D8"/>
<path d="M299.468 207.128C235.897 183.384 152.003 250.768 112.086 357.634L111.028 360.513C77.5141 353.466 45.3253 360.074 23.7474 381.704C-16.0067 421.554 -4.68968 497.299 49.0257 550.886L49.8968 551.747C86.8222 588.017 133.46 598.094 172.634 598.373L172.777 578.373C136.368 578.114 95.2012 568.699 63.1517 536.727C39.0256 512.659 24.9957 484.15 21.1165 458.188C17.2371 432.224 23.539 410.231 37.9066 395.829C53.4726 380.225 78.1061 374.027 106.912 380.084L123.893 383.656L129.824 367.348C130.165 366.41 130.494 365.512 130.823 364.632C149.741 313.983 178.78 273.614 209.431 248.995C240.468 224.065 269.931 217.445 292.47 225.864C315.009 234.282 332.918 258.596 340.012 297.768C347.018 336.453 342.482 385.974 323.564 436.623C306.45 482.441 281.082 518.381 253.552 542.588C225.823 566.97 197.042 578.546 172.777 578.373L172.634 598.373L174.068 598.372C234.364 597.904 305.155 540.963 341.442 445.893L342.299 443.623C382.06 337.173 363.189 231.7 300.211 207.41L299.468 207.128Z" fill="black"/>
<path d="M401.272 38.8942C451.362 60.3752 477.369 111.831 459.36 153.824C441.351 195.818 386.146 212.446 336.056 190.965C285.966 169.484 259.959 118.028 277.968 76.0349C295.977 34.0417 351.182 17.4133 401.272 38.8942Z" fill="#FF56D8"/>
<path d="M393.389 57.2755C350.282 38.7889 308.76 54.9787 296.349 83.9176C283.939 112.856 300.832 154.098 343.94 172.584C387.047 191.071 428.569 174.881 440.979 145.942L459.36 153.824L458.931 154.804C440.635 195.75 386.615 212.021 337.232 191.462L336.057 190.965C285.967 169.484 259.959 118.028 277.968 76.0349L278.397 75.0552C296.839 33.7842 351.573 17.5813 401.272 38.8944L402.442 39.4034C451.765 61.1789 477.228 112.159 459.36 153.824L440.979 145.942C453.389 117.003 436.497 75.7621 393.389 57.2755Z" fill="black"/>
</svg>
