<svg width="525" height="613" viewBox="0 0 525 613" fill="none" xmlns="http://www.w3.org/2000/svg">
<path d="M224.346 236.297C250.523 186.728 311.927 167.764 361.497 193.94C411.066 220.116 430.031 281.521 403.855 331.091L291.013 544.774C264.837 594.344 203.432 613.308 153.862 587.131C147.507 583.775 141.656 579.838 136.338 575.423C97.7719 548.713 67.6544 521.012 36.3026 485.003C7.91944 452.404 10.1433 403.887 38.5167 371.463C70.052 335.425 121.773 331.887 161.698 354.932L224.346 236.297Z" fill="white"/>
<path d="M218.597 233.261C246.45 180.517 311.786 160.339 364.53 188.191C417.274 216.044 437.453 281.381 409.6 334.125L296.759 547.809C268.906 600.552 203.569 620.73 150.826 592.877C144.16 589.357 138.012 585.233 132.413 580.61C93.462 553.607 63.004 525.569 31.399 489.27C0.687088 453.996 3.31076 401.822 33.6237 367.181C65.9874 330.197 117.755 325.385 159.008 346.1L218.597 233.261ZM358.46 199.686C312.065 175.186 254.593 192.936 230.092 239.331L164.292 363.934L158.446 360.56C120.71 338.778 72.5402 342.448 43.4063 375.741C16.9725 405.949 15.1485 450.809 41.2028 480.734C72.2409 516.382 101.963 543.709 140.037 570.078L140.27 570.239L140.488 570.42C145.464 574.551 150.941 578.238 156.895 581.382C203.29 605.883 260.764 588.133 285.264 541.738L398.105 328.055C422.605 281.659 404.855 224.186 358.46 199.686Z" fill="black"/>
<path d="M464.217 44.5219C431.086 19.9319 384.25 26.9151 359.606 60.1193C334.961 93.3235 341.839 140.175 374.97 164.765C408.1 189.355 454.936 182.372 479.581 149.168C504.226 115.963 497.347 69.1119 464.217 44.5219Z" fill="white"/>
<path d="M456.469 54.9613C483.812 75.256 489.524 113.959 469.142 141.42C448.76 168.88 410.061 174.621 382.718 154.326C355.375 134.032 349.662 95.3282 370.044 67.8672L359.605 60.1193L359.034 60.9005C335.07 94.0546 342.098 140.367 374.97 164.765C408.1 189.355 454.936 182.372 479.58 149.168C504.225 115.964 497.347 69.1125 464.217 44.5225C431.087 19.9325 384.25 26.9151 359.605 60.1193L370.044 67.8672C390.426 40.4063 429.126 34.6667 456.469 54.9613Z" fill="black"/>
</svg>
