<svg width="425" height="568" viewBox="0 0 425 568" fill="none" xmlns="http://www.w3.org/2000/svg">
<path d="M43.9415 231.914C107.018 77.891 214.768 -23.7831 284.608 4.81786C326.749 22.0758 345.456 82.8222 339.811 162.129C395.272 183.751 430.764 228.216 424.223 275.152C416.778 328.571 357.385 367.242 285.852 368.979C332.437 435.767 330.886 515.193 282.071 547.086C248.333 569.13 200.775 562.746 158.804 534.931C121.983 563.492 85.7015 574.671 56.1886 562.584C-13.6513 533.983 -19.1345 385.936 43.9415 231.914Z" fill="#FF56D8"/>
<path d="M43.9415 231.913C107.018 77.8913 214.768 -23.7828 284.608 4.81774C326.749 22.0756 345.456 82.8223 339.811 162.129C395.272 183.751 430.764 228.217 424.223 275.153L424.039 276.402C415.849 329.174 356.826 367.256 285.852 368.98C332.436 435.768 330.886 515.193 282.071 547.087L281.278 547.598C247.591 569.029 200.447 562.529 158.804 534.932C122.271 563.269 86.2688 574.495 56.882 562.863L56.1886 562.585C-13.6513 533.984 -19.1345 385.936 43.9415 231.913ZM277.028 23.3265C253.853 13.8358 217.961 24.3274 175.464 64.4281C134.423 103.155 93.1624 164.497 62.4494 239.493C31.7364 314.49 18.1196 387.152 20.2081 443.542C22.3708 501.932 40.5935 534.586 63.7687 544.076C83.2281 552.045 111.657 546.19 146.546 519.128L157.888 510.331L169.853 518.26C208.173 543.655 246.654 546.337 271.132 530.344C288.683 518.877 299.174 498.051 299.74 470.704C300.308 443.302 290.658 410.829 269.448 380.421L248.152 349.889L285.366 348.986C352.31 347.36 398.931 311.731 404.414 272.392C409.156 238.369 383.47 200.617 332.546 180.764L318.815 175.41L319.861 160.709C322.565 122.723 319.303 90.5688 311.188 66.6253C303.066 42.6647 290.92 29.0155 277.028 23.3265Z" fill="black"/>
</svg>
