<svg width="634" height="710" viewBox="0 0 634 710" fill="none" xmlns="http://www.w3.org/2000/svg">
<path d="M78.9025 157.395C121.842 123.338 184.514 132.827 216.345 177.398C244.348 216.609 270.504 251.991 296.726 285.975L298.227 283.912C331.207 238.584 394.688 228.573 440.017 261.552C476.198 287.877 489.877 333.634 477.153 374.082L486.583 374.102C542.64 374.225 587.983 419.767 587.86 475.824C587.738 531.881 542.196 577.225 486.139 577.102L436.63 576.994C432.448 582.057 427.672 586.768 422.305 591.025C383.934 621.458 328.532 617.907 295.233 581.94C201.525 480.724 137.933 399.253 59.1751 283.496C31.5429 242.882 40.4381 187.902 78.9025 157.395Z" fill="white"/>
<path d="M74.8652 152.305C120.78 115.889 187.69 126.09 221.636 173.622C247.754 210.194 272.253 243.415 296.69 275.269C332.669 231.184 397.263 222.409 443.843 256.299C479.853 282.499 494.903 326.778 485.633 367.602L486.599 367.604C546.245 367.735 594.492 416.194 594.362 475.84C594.232 535.486 545.773 583.734 486.127 583.604L439.624 583.502C435.655 588.018 431.229 592.247 426.347 596.12C385.384 628.608 326.132 624.883 290.465 586.358C196.512 484.877 132.721 403.148 53.8029 287.154C24.2194 243.672 33.7823 184.888 74.8652 152.305ZM211.057 181.178C181.341 139.569 122.908 130.793 82.9429 162.49C47.0974 190.92 38.8704 242.095 64.5513 279.841L68.2239 285.231C145.136 397.906 208.002 478.152 300.004 577.526C330.935 610.935 382.489 614.312 418.268 585.935L419.2 585.185C423.829 581.413 427.969 577.278 431.619 572.857L433.575 570.489L486.155 570.604C538.622 570.718 581.247 528.278 581.362 475.811C581.476 423.345 539.037 380.719 486.57 380.604L468.302 380.565L470.955 372.134C482.866 334.268 470.05 291.443 436.194 266.811C393.768 235.943 334.353 245.313 303.485 287.739L303.483 287.74L296.879 296.814L291.581 289.948C265.303 255.89 239.099 220.443 211.057 181.178Z" fill="black"/>
</svg>
