<svg width="475" height="658" viewBox="0 0 475 658" fill="none" xmlns="http://www.w3.org/2000/svg">
<path d="M352.134 50.5591C419.802 78.4825 423.258 225.678 359.852 379.33C296.447 532.982 190.192 634.905 122.524 606.982C54.8558 579.058 51.3999 431.862 114.805 278.211C178.21 124.559 284.466 22.6356 352.134 50.5591Z" fill="#FF56D8"/>
<path d="M344.123 69.9717C333.584 65.6227 320.075 65.6279 303.089 72.2913C285.968 79.0075 266.627 92.0553 246.408 111.449C206.017 150.194 165.076 211.44 134.217 286.221C103.358 361.002 89.1929 433.298 90.5066 489.252C91.1642 517.26 95.676 540.151 103.078 556.986C110.421 573.689 119.995 583.221 130.534 587.57C141.073 591.919 154.582 591.912 171.568 585.249C188.689 578.533 208.031 565.486 228.249 546.092C268.641 507.348 309.582 446.101 340.441 371.32L359.853 379.331L358.359 382.922C295.04 533.97 190.49 633.898 123.319 607.303L122.524 606.982C54.8559 579.058 51.3999 431.863 114.805 278.211C178.21 124.559 284.466 22.6361 352.134 50.5595L352.924 50.892C419.828 79.6332 423.01 226.279 359.853 379.331L340.441 371.32C371.299 296.539 385.465 224.243 384.151 168.29C383.493 140.281 378.981 117.39 371.579 100.554C364.236 83.8513 354.662 74.3207 344.123 69.9717Z" fill="black"/>
</svg>
