<svg width="474" height="498" viewBox="0 0 474 498" fill="none" xmlns="http://www.w3.org/2000/svg">
<path d="M206.107 61.8236C179.18 12.6574 117.495 -5.37217 68.3284 21.5539C19.1619 48.48 1.13278 110.166 28.0587 159.332L178.233 433.548C198.438 470.441 238.213 489.801 277.585 485.793C295.211 486.72 313.074 482.215 328.645 471.533C373.027 441.087 406.008 410.528 440.485 369.775C468.484 336.681 465.61 288.055 436.661 255.969C402.778 218.415 346.89 217.387 306.757 245.607L206.107 61.8236Z" fill="white"/>
<path d="M211.808 58.7007C183.157 6.38592 117.521 -12.7983 65.2059 15.852C12.8908 44.5025 -6.29288 110.139 22.3573 162.454L172.532 436.67C193.951 475.779 236.031 496.359 277.748 492.306C296.559 493.192 315.657 488.324 332.322 476.892C377.219 446.092 410.625 415.132 445.447 373.973C475.732 338.176 472.417 285.896 441.487 251.614C406.729 213.09 350.885 210.676 309.076 236.307L211.808 58.7007ZM71.4504 27.2544C117.468 2.05268 175.203 18.9275 200.405 64.9452L304.548 255.105L310.495 250.923C348.434 224.245 400.535 225.631 431.834 260.322C458.802 290.212 461.235 335.184 435.523 365.576C401.389 405.922 368.834 436.08 324.969 466.172C310.64 476.001 294.203 480.157 277.926 479.301L277.425 479.274L276.926 479.325C240.062 483.078 202.84 464.946 183.934 430.425L33.7596 156.209C8.55801 110.191 25.4325 52.4561 71.4504 27.2544Z" fill="black"/>
</svg>
