<svg width="602" height="327" viewBox="0 0 602 327" fill="none" xmlns="http://www.w3.org/2000/svg">
<path d="M100.983 42.2841C120.316 16.426 150.933 4.28455 181.265 6.83198C204.799 6.24239 228.646 13.7916 248.252 29.9228L308.009 79.0888C334.232 64.157 358.801 48.6284 384.191 30.8496C412.869 10.768 448.621 6.92628 478.922 18.1962C506.019 26.6445 529.443 46.3478 541.725 74.3877L586.926 177.589C609.416 228.936 586.022 288.793 534.675 311.283C483.327 333.773 423.471 310.38 400.981 259.032L400.283 257.441C396.958 264.038 392.859 270.373 387.968 276.317C352.352 319.605 288.387 325.824 245.099 290.208L196.192 249.969C194.163 253.534 192.135 257.136 190.106 260.781C162.528 310.312 99.5004 328.743 51.3225 298.647C10.4735 273.13 -5.64588 220.96 16.4299 178.041C42.6374 127.09 67.9867 86.4167 100.983 42.2841Z" fill="white"/>
<path d="M95.7762 38.3893C116.475 10.7046 149.171 -2.27008 181.449 0.32487C206.373 -0.219763 231.62 7.81926 252.382 24.901L308.673 71.2155C333.272 57.0631 356.494 42.3061 380.462 25.5231C410.855 4.24062 448.777 0.105965 481.033 12.0446C509.776 21.0599 534.637 42.0022 547.679 71.778L592.88 174.979C616.81 229.615 591.919 293.305 537.283 317.235C485.951 339.718 426.628 319.105 399.795 271.219C397.711 274.378 395.444 277.459 392.987 280.445C355.09 326.505 287.029 333.122 240.969 295.225L198.043 259.907C197.291 261.246 196.537 262.59 195.785 263.941C166.521 316.5 99.4199 336.354 47.8788 304.158C4.3487 276.966 -13.0708 221.181 10.6493 175.065C37.0165 123.803 62.5562 82.8215 95.7762 38.3893ZM180.721 13.3073C152.451 10.9331 124.079 22.2457 106.188 46.1745C73.4166 90.0071 48.2574 130.371 22.2098 181.011C1.77828 220.734 16.5985 269.29 54.7664 293.132C99.5811 321.127 158.535 304.119 184.427 257.617C186.466 253.954 188.504 250.334 190.542 246.752L194.359 240.042L249.228 285.186C289.744 318.522 349.613 312.701 382.948 272.185C387.53 266.616 391.368 260.685 394.479 254.513L400.694 242.184L406.933 256.421L406.934 256.423C427.984 304.482 484.008 326.376 532.067 305.327C580.126 284.277 602.021 228.253 580.971 180.194L535.77 76.9928C524.276 50.7501 502.363 32.3107 476.987 24.3991L476.82 24.3473L476.656 24.2858C448.342 13.7551 414.833 17.325 387.919 36.1716C362.364 54.0662 337.624 69.7031 311.225 84.735L307.336 86.9499L244.122 34.9401C225.768 19.8389 203.459 12.7759 181.428 13.3278L181.073 13.3366L180.721 13.3073Z" fill="black"/>
</svg>
