<svg width="621" height="467" viewBox="0 0 621 467" fill="none" xmlns="http://www.w3.org/2000/svg">
<path d="M428.107 1.89631C497.169 -10.3788 574.299 37.5533 606.443 127.868C639.531 220.833 610.688 316.009 542.021 340.448C506.182 353.204 466.579 344.168 432.199 319.396C426.871 325.695 412.69 335.398 406.079 338.85C374.412 355.386 334.094 352.106 282.33 342.885C274.66 402.557 244.615 449.392 198.734 462.91C126.734 484.124 43.0084 415.257 11.729 309.093C-19.5503 202.929 13.9962 102.442 85.4604 78.4549C88.8833 77.306 91.9757 76.4686 95.1151 75.3528C144.448 57.819 219.208 64.125 294.021 96.535C297.91 98.2198 301.747 99.9551 305.53 101.735C334.36 41.8403 383.126 9.89125 428.107 1.89631Z" fill="#FF56D8"/>
<path d="M428.107 1.89631C497.169 -10.3788 574.299 37.5533 606.444 127.868C639.531 220.833 610.688 316.009 542.022 340.448L541.181 340.743C505.564 353.061 466.311 343.974 432.199 319.396C426.871 325.695 412.691 335.398 406.079 338.85L405.335 339.234C373.782 355.334 333.69 352.034 282.329 342.885C274.66 402.556 244.615 449.392 198.734 462.91L197.89 463.154C126.644 483.424 44.191 415.915 12.4721 311.574L11.7289 309.093C-19.4283 203.343 13.7355 103.227 84.6254 78.7391L85.4603 78.4549C88.4554 77.4496 91.198 76.6831 93.9398 75.7596L95.1156 75.3524C144.448 57.8186 219.208 64.1251 294.021 96.535C296.938 97.7986 299.826 99.09 302.683 100.408L305.53 101.735C334.134 42.3083 382.365 10.3918 427.052 2.08772L428.107 1.89631ZM587.601 134.574C557.864 51.024 488.706 11.439 431.607 21.5877C393.149 28.4234 349.679 56.1281 323.551 110.409L314.953 128.272L297.015 119.832C293.414 118.138 289.766 116.487 286.071 114.887C214.009 83.6684 144.735 78.943 101.814 94.1981C99.8138 94.9089 97.9036 95.5043 96.3002 95.9998C94.6048 96.5238 93.252 96.9358 91.8246 97.4149C63.6736 106.864 41.122 131.991 29.0922 169.122C17.0823 206.192 16.2596 253.701 30.9144 303.44C45.5742 353.196 72.3054 393.349 102.666 418.322C133.13 443.379 165.338 451.899 193.081 443.725C228.33 433.34 255.361 395.832 262.494 340.335L265.169 319.513L285.837 323.194C338.221 332.526 371.956 334.105 396.822 321.122C398.973 319.999 403.316 317.302 407.898 313.987C412.768 310.464 415.94 307.649 416.928 306.48L428.877 292.352L443.891 303.17C474.421 325.167 507.207 331.609 535.315 321.605C562.263 312.014 582.951 288.036 593.249 254.055C603.545 220.08 602.858 177.441 587.601 134.574Z" fill="black"/>
</svg>
