<svg width="461" height="465" viewBox="0 0 461 465" fill="none" xmlns="http://www.w3.org/2000/svg">
<path d="M14.9182 157.255C48.4846 50.0332 124.74 -10.6152 190.731 1.53698C195.661 2.44481 201.183 3.55016 205.747 5.15206C242.047 17.8919 279.65 49.7473 310.497 95.9213C337.78 76.0279 366.787 68.1529 393.056 76.3764C455.377 95.8866 478.688 198.623 445.121 305.845C415.675 399.907 351.494 458.91 294.532 464.428C245.557 469.173 190.283 439.202 146.791 374.837C121.477 390.181 95.0309 395.505 70.7239 387.896C6.33685 367.739 -18.6481 264.477 14.9182 157.255Z" fill="#FF56D8"/>
<path d="M14.9181 157.255C48.4845 50.033 124.74 -10.615 190.731 1.53693C195.661 2.44475 201.183 3.55029 205.747 5.15216C242.047 17.8919 279.65 49.7469 310.497 95.9207C337.78 76.0274 366.787 68.1525 393.056 76.3758C455.377 95.886 478.688 198.623 445.121 305.845C415.675 399.906 351.494 458.91 294.533 464.429L293.384 464.533C244.695 468.703 189.943 438.699 146.791 374.837C121.477 390.18 95.0309 395.505 70.7238 387.895C6.33702 367.738 -18.6481 264.477 14.9181 157.255ZM187.109 21.2059C161.644 16.5168 131.999 25.5092 103.693 49.8065C75.4782 74.0247 49.8622 112.578 34.0051 163.23C18.1196 213.974 16.4173 262.869 25.5275 300.521C34.7463 338.622 53.8363 361.652 76.6994 368.809C94.0445 374.239 114.515 371.013 136.425 357.733L152.704 347.866L163.364 363.64C204.475 424.482 253.55 448.305 292.604 444.521C338.363 440.088 397.854 389.89 426.035 299.87C441.954 249.019 444.053 200.154 435.542 162.644C426.903 124.567 408.601 102.2 387.081 95.4627C368.902 89.7717 346.459 94.4522 322.281 112.082L305.443 124.358L293.867 107.031C264.563 63.1663 230.077 34.8867 199.124 24.0233C196.208 22.9996 192.105 22.126 187.109 21.2059Z" fill="black"/>
</svg>
