<svg width="496" height="349" viewBox="0 0 496 349" fill="none" xmlns="http://www.w3.org/2000/svg">
<path d="M100.76 44.7478C128.227 9.56822 176.043 -4.02442 216.39 15.3826C250.106 31.6003 279.178 48.5167 305.881 67.8728C330.848 21.9506 387.275 1.06638 435.349 24.2869C479.116 45.4273 500.621 96.2356 482.799 141.551C462.638 192.814 442.546 235.001 415.691 281.403C392.973 320.655 345.095 335.642 303.379 320.104C282.343 315.463 262.157 304.869 245.837 288.698C234.918 277.878 224.051 267.871 213.069 258.499L198.301 287.241C172.682 337.101 111.493 356.752 61.6333 331.133C11.7735 305.513 -7.87768 244.324 17.7417 194.465L77.0513 79.0388C81.3866 70.6017 86.7412 63.0303 92.8862 56.3962C95.1967 52.4096 97.8169 48.5176 100.76 44.7478Z" fill="white"/>
<path d="M95.6381 40.7473C124.797 3.40147 175.84 -11.3364 219.209 9.52464C250.788 24.7144 278.414 40.5565 303.88 58.4592C331.962 14.1439 389.015 -5.31262 438.177 18.4328C484.831 40.9678 507.986 95.2723 488.85 143.929C468.579 195.47 448.349 237.953 421.318 284.658C396.971 326.726 345.899 342.648 301.543 326.352C279.497 321.403 258.366 310.261 241.264 293.315C232.522 284.652 223.819 276.523 215.069 268.83L204.084 290.211C176.824 343.264 111.717 364.173 58.6645 336.913C5.61185 309.653 -15.2985 244.546 11.9613 191.493L71.2709 76.0676C75.7639 67.3235 81.292 59.4459 87.6293 52.511C89.9985 48.4858 92.6644 44.5561 95.6381 40.7473ZM213.574 21.2395C176.25 3.28674 131.661 15.7341 105.885 48.7473C103.126 52.2811 100.673 55.925 98.5112 59.6545L98.1479 60.2815L97.6567 60.8127C91.9092 67.0176 86.8966 74.1033 82.8344 82.009L23.5248 197.435C-0.453766 244.102 17.9383 301.372 64.6049 325.351C111.272 349.329 168.542 330.936 192.521 284.27L211.042 248.222L217.289 253.554C228.4 263.035 239.386 273.153 250.413 284.08C265.596 299.124 284.319 309.058 303.851 313.546L304.782 313.756L305.224 313.854L305.65 314.012C344.625 328.529 389.057 314.447 410.067 278.147C436.747 232.048 456.699 190.156 476.751 139.171C493.259 97.1981 473.403 49.8849 432.524 30.1389C387.812 8.54232 335.033 27.8635 311.593 70.9768L308.059 77.4778L302.068 73.135C275.734 54.0463 247.007 37.3213 213.574 21.2395Z" fill="black"/>
</svg>
