<svg width="371" height="371" viewBox="0 0 371 371" fill="none" xmlns="http://www.w3.org/2000/svg">
<path d="M370.289 185.145C370.289 287.397 287.397 370.289 185.145 370.289C82.892 370.289 0 287.397 0 185.145C0 82.892 82.892 0 185.145 0C287.397 0 370.289 82.892 370.289 185.145Z" fill="white"/>
<path d="M357.289 185.145C357.289 90.0717 280.217 13 185.145 13C90.0717 13 13 90.0717 13 185.145C13 280.217 90.0717 357.289 185.145 357.289V370.289C82.892 370.289 0 287.397 0 185.145C0 82.892 82.892 0 185.145 0C287.397 0 370.289 82.892 370.289 185.145C370.289 287.397 287.397 370.289 185.145 370.289V357.289C280.217 357.289 357.289 280.217 357.289 185.145Z" fill="black"/>
<path d="M100.954 49.6575C118.746 61.2226 119.196 92.7461 101.96 120.067C84.724 147.389 56.3279 160.162 38.5358 148.597C20.7437 137.032 20.293 105.508 37.5292 78.1867C54.7654 50.8654 83.1615 38.0925 100.954 49.6575Z" fill="black"/>
<path d="M94.017 60.6524C89.9748 58.0251 83.3205 57.2561 74.3342 61.2983C65.4663 65.2873 55.8889 73.4468 48.4289 85.2717C40.9689 97.0966 37.6746 109.34 37.8153 119.185C37.9579 129.161 41.4299 134.974 45.4719 137.602C49.514 140.229 56.1682 140.998 65.1546 136.956C74.0226 132.967 83.6007 124.808 91.0608 112.983L101.961 120.068L101.144 121.338C83.8394 147.782 56.0497 159.981 38.5356 148.596C20.7437 137.031 20.2931 105.508 37.5292 78.1868C54.7653 50.8656 83.1612 38.0927 100.953 49.6575C118.745 61.2225 119.197 92.7465 101.961 120.068L91.0608 112.983C98.5208 101.158 101.814 88.9138 101.674 79.0691C101.531 69.0929 98.0591 63.2798 94.017 60.6524Z" fill="black"/>
</svg>
