<svg width="667" height="656" viewBox="0 0 667 656" fill="none" xmlns="http://www.w3.org/2000/svg">
<path d="M453.074 128.142C570.897 198.91 612.744 345.63 546.543 455.85C480.341 566.07 331.16 598.053 213.337 527.285C95.5143 456.517 53.6669 309.797 119.868 199.577C186.07 89.3568 335.251 57.3743 453.074 128.142Z" fill="#FF56D8"/>
<path d="M442.262 146.145C333.231 80.658 197.432 111.224 137.871 210.39C78.309 309.555 115.12 443.796 224.15 509.283C333.181 574.769 468.979 544.203 528.54 445.037L546.543 455.85C480.6 565.64 332.325 597.802 214.72 528.11L213.338 527.285C95.5148 456.517 53.6669 309.797 119.868 199.577C186.07 89.3568 335.251 57.3746 453.074 128.142L454.451 128.975C571.222 200.056 612.486 346.06 546.543 455.85L528.54 445.037C588.102 345.872 551.292 211.632 442.262 146.145Z" fill="black"/>
<path d="M308.703 318.49C305.11 326.13 313.166 337.483 326.698 343.849C340.23 350.215 354.113 349.183 357.707 341.543C361.3 333.904 353.244 322.55 339.712 316.184C326.18 309.819 312.297 310.851 308.703 318.49Z" fill="#FF56D8"/>
<path d="M339.713 316.185C326.181 309.819 312.297 310.851 308.703 318.49L308.543 318.851C305.362 326.483 313.377 337.583 326.698 343.849L327.332 344.142C340.661 350.181 354.169 349.063 357.707 341.543C361.3 333.904 353.244 322.55 339.713 316.185Z" fill="black"/>
</svg>
