<svg width="665" height="620" viewBox="0 0 665 620" fill="none" xmlns="http://www.w3.org/2000/svg">
<path d="M463.912 366.887C541.124 361.344 601.2 302.742 593.051 225.357L590.746 203.475C584.196 141.274 535.737 86.4164 472.61 83.9232C446.05 82.8742 420.84 84.0748 394.53 87.6906C380.568 89.6096 367.841 93.9968 356.532 100.346C341.57 105.971 327.916 115.556 317.221 128.927C237.446 228.669 184.581 308.624 122.79 419.962C99.0492 462.737 112.525 516.625 152.903 544.12C198.164 574.939 259.604 561.064 288.142 514.349C323.698 456.145 355.882 406.049 390.334 355.56C413.634 364.569 439.157 368.664 463.912 366.887Z" fill="white"/>
<path d="M466.247 373.225C544.846 366.713 607.067 306.757 599.699 226.589L599.511 224.677L599.511 224.676L597.206 202.795L597.206 202.795C590.387 138.037 539.832 80.0732 472.863 77.4282C445.925 76.3643 420.333 77.583 393.641 81.2514C379.044 83.2575 365.683 87.8243 353.771 94.4436C337.928 100.493 323.474 110.699 312.141 124.868C232.124 224.912 179.059 305.173 117.102 416.808C91.6913 462.593 106.152 520.153 149.24 549.493C197.636 582.447 263.249 567.558 293.684 517.737C328.206 461.226 359.531 412.394 392.84 363.421C415.656 371.5 440.328 375.097 464.372 373.371L466.247 373.225ZM586.582 226.038C594.27 299.044 537.759 355.068 463.441 360.404L463.441 360.405C439.694 362.11 415.128 358.18 392.674 349.498L387.865 347.639L384.96 351.897C350.438 402.49 318.194 452.679 282.59 510.961C256.157 554.229 199.577 567.23 157.547 539.412L156.557 538.747C118.89 513.098 106.399 462.883 128.468 423.117C190.095 312.077 242.759 232.427 322.292 132.988C332.238 120.554 344.919 111.655 358.815 106.43L359.278 106.257L359.709 106.014C370.309 100.064 382.256 95.9386 395.411 94.1307C421.338 90.5674 446.166 89.3842 472.35 90.4183C531.634 92.7598 577.997 144.511 584.278 204.156L584.277 204.156L586.582 226.038Z" fill="black"/>
<path d="M522.775 120.094C542.798 113.065 568.038 131.956 579.151 162.288C590.264 192.62 583.042 222.907 563.02 229.937C542.997 236.966 517.757 218.075 506.643 187.743C495.53 157.411 502.753 127.124 522.775 120.094Z" fill="black"/>
<path d="M527.247 132.301C522.699 133.898 518.027 138.698 515.741 148.283C513.486 157.742 514.1 170.309 518.91 183.437C523.719 196.565 531.404 206.649 539.287 212.549C547.274 218.527 553.998 219.327 558.547 217.73C563.096 216.133 567.768 211.333 570.053 201.748C572.309 192.289 571.696 179.722 566.886 166.594L579.152 162.288L579.659 163.71C590.036 193.561 582.729 223.017 563.019 229.937C542.997 236.966 517.757 218.075 506.643 187.743C495.53 157.411 502.753 127.124 522.775 120.095C542.798 113.065 568.039 131.956 579.152 162.288L566.886 166.594C562.076 153.466 554.39 143.382 546.508 137.482C538.52 131.504 531.796 130.704 527.247 132.301Z" fill="black"/>
</svg>
