<svg width="596" height="523" viewBox="0 0 596 523" fill="none" xmlns="http://www.w3.org/2000/svg">
<path d="M177.048 48.3435C244.355 -8.6971 355.721 -18.5473 455.126 36.5173C573.966 102.348 627.706 232.614 575.158 327.475C523.172 421.323 386.632 445.358 268.649 382.117C191.293 489.292 89.9229 541.529 45.1694 516.488C-17.7511 481.283 -12.3002 388.819 45.1692 241.999C79.2124 155.027 130.53 87.7663 177.048 48.3435Z" fill="#FF56D8"/>
<path d="M177.048 48.3435C244.355 -8.69711 355.721 -18.5473 455.126 36.5173C573.966 102.348 627.706 232.614 575.158 327.475L574.545 328.572C522.105 421.509 386.171 445.111 268.648 382.117C191.292 489.291 89.9224 541.528 45.1689 516.488C-17.2596 481.558 -12.381 390.259 43.832 245.429L45.1689 241.999C78.6802 156.386 128.93 89.8728 174.864 50.2116L177.048 48.3435ZM445.435 54.0124C352.046 2.28084 249.914 12.8081 189.978 63.6013C146.16 100.736 96.7122 165.188 63.7929 249.289C35.2991 322.084 20.6473 379.194 20.0205 421.396C19.4061 462.763 32.0385 486.224 54.9355 499.035C60.6968 502.258 70.2531 504.008 84.5586 501.442C98.6951 498.906 115.795 492.412 134.721 481.541C172.525 459.824 215.168 422.039 252.432 370.412L262.674 356.221L278.098 364.489C390.292 424.627 512.869 398.648 557.663 317.784C602.935 236.058 558.496 116.642 445.435 54.0124Z" fill="black"/>
<path d="M375.202 222.561C371.608 230.2 379.664 241.553 393.196 247.919C406.728 254.285 420.611 253.253 424.205 245.614C427.799 237.974 419.742 226.621 406.21 220.255C392.678 213.889 378.795 214.921 375.202 222.561Z" fill="#FF56D8"/>
<path d="M406.211 220.255C392.679 213.889 378.795 214.921 375.201 222.56L375.041 222.921C371.86 230.553 379.875 241.653 393.196 247.92L393.83 248.213C407.159 254.252 420.667 253.133 424.205 245.613C427.798 237.974 419.742 226.621 406.211 220.255Z" fill="black"/>
</svg>
