<svg width="566" height="558" viewBox="0 0 566 558" fill="none" xmlns="http://www.w3.org/2000/svg">
<path d="M140.188 36.5156C239.86 -18.6968 351.54 -8.64583 418.79 48.8222C465.163 88.4505 516.356 155.676 550.354 242.534C582.112 392.82 563.471 546.027 491.463 557.123C427.652 566.956 350.593 446.315 326.618 382.141C208.645 445.35 72.1357 421.309 20.1559 327.474C-32.3917 232.612 21.3484 102.346 140.188 36.5156Z" fill="#FF56D8"/>
<path d="M140.188 36.5155C239.86 -18.6967 351.54 -8.64586 418.79 48.8221C465.163 88.4504 516.356 155.676 550.354 242.534C582.112 392.82 563.471 546.026 491.463 557.123L490.714 557.232C427.051 566.014 350.499 446.064 326.618 382.14C209.106 445.103 73.2012 421.495 20.7683 328.57L20.156 327.473C-32.1864 232.983 20.9301 103.363 138.799 37.2899L140.188 36.5155ZM405.797 64.0272C345.927 12.8662 243.523 2.13784 149.88 54.0106C36.818 116.64 -7.62047 236.056 37.6511 317.782C82.4395 398.635 204.988 424.619 317.172 364.512L337.343 353.703L345.353 375.141C356.576 405.18 380.735 449.468 409.58 484.719C423.986 502.324 438.89 516.842 453.169 526.259C467.615 535.786 479.323 538.758 488.417 537.356C498.94 535.735 509.181 528.866 518.531 513.849C528.014 498.621 535.482 476.552 540.09 448.755C549.212 393.712 546.326 321.083 531.122 248.278C498.248 165.044 449.25 101.16 405.797 64.0272Z" fill="black"/>
<path d="M228.292 222.561C231.885 230.2 223.829 241.553 210.297 247.919C196.765 254.285 182.882 253.253 179.288 245.614C175.695 237.974 183.751 226.621 197.283 220.255C210.815 213.889 224.698 214.921 228.292 222.561Z" fill="#FF56D8"/>
<path d="M197.283 220.255C210.814 213.889 224.698 214.921 228.292 222.56L228.452 222.921C231.633 230.553 223.618 241.653 210.297 247.92L209.663 248.213C196.334 254.252 182.826 253.133 179.288 245.613C175.695 237.974 183.751 226.621 197.283 220.255Z" fill="black"/>
</svg>
