<svg width="667" height="682" viewBox="0 0 667 682" fill="none" xmlns="http://www.w3.org/2000/svg">
<path d="M220.283 575.731C179.1 548.644 165.184 493.659 189.459 449.03C211.947 407.685 231.435 369.854 250.083 331.171C208.118 300.011 186.539 248.855 202.497 194.359L208.68 173.243C226.258 113.218 283.754 67.9207 346.308 76.7665C372.627 80.4885 397.215 86.1813 422.453 94.4478C484.631 114.814 511.126 182.699 492.752 245.444L485.034 271.798C483.253 277.88 480.985 283.674 478.283 289.176C477.573 291.702 476.747 294.219 475.804 296.721C461.566 334.495 447.447 368.405 432.279 401.007C447.76 413.211 459.71 430.048 465.611 450.502C478.426 494.92 458.378 542.984 415.403 560.393C373.294 577.451 335.214 587.862 290.454 595.076C264.487 599.262 239.46 591.397 220.283 575.731Z" fill="white"/>
<path d="M216.438 580.974C172.609 551.94 157.94 493.377 183.753 445.921C205.276 406.351 224.032 370.023 241.935 333.09C200.848 300.23 180.011 248.03 196.263 192.53L202.446 171.413L202.446 171.413C220.746 108.921 280.861 60.944 347.222 70.3282C373.914 74.103 398.875 79.8809 424.479 88.2675C490.749 109.974 518.114 181.973 498.994 247.268L491.276 273.622C489.447 279.87 487.13 285.833 484.381 291.505C483.754 293.68 483.049 295.848 482.263 298.006L481.891 299.011C468.264 335.162 454.733 367.82 440.283 399.195C454.851 411.875 466.081 428.663 471.861 448.697C485.486 495.925 464.268 547.61 417.848 566.414C375.267 583.663 336.712 594.201 291.492 601.49C263.664 605.976 236.903 597.577 216.438 580.974ZM195.173 452.133C172.49 493.835 185.539 545.093 223.859 570.297L224.139 570.481L224.399 570.694C242.256 585.282 265.437 592.523 289.423 588.656C333.723 581.516 371.33 571.232 412.966 554.365C452.495 538.353 471.374 493.91 459.37 452.301C453.863 433.213 442.722 417.51 428.259 406.108L424.22 402.925L426.39 398.262C441.48 365.829 455.536 332.071 469.726 294.425C470.603 292.099 471.37 289.759 472.03 287.413L472.191 286.84L472.452 286.308C474.992 281.136 477.125 275.689 478.801 269.968L486.518 243.614C504.145 183.419 478.521 119.649 420.433 100.622C395.563 92.4758 371.347 86.8693 345.401 83.2002C286.655 74.8928 231.777 117.509 214.922 175.066L208.739 196.183C193.63 247.78 213.931 296.225 253.962 325.95L258.275 329.152L255.942 333.991C237.243 372.781 217.705 410.708 195.173 452.133Z" fill="black"/>
<path d="M223.989 206.497C244.048 199.572 269.19 218.593 280.145 248.983C291.101 279.372 283.722 309.621 263.663 316.547C243.605 323.472 218.462 304.451 207.507 274.061C196.551 243.672 203.93 213.422 223.989 206.497Z" fill="black"/>
<path d="M228.398 218.727C223.841 220.3 219.144 225.076 216.809 234.649C214.504 244.096 215.053 256.666 219.795 269.819C224.537 282.972 232.169 293.096 240.021 299.036C247.977 305.056 254.697 305.89 259.254 304.317C263.811 302.744 268.508 297.968 270.843 288.395C273.148 278.948 272.599 266.378 267.858 253.225L280.146 248.982L280.646 250.407C290.868 280.311 283.408 309.73 263.663 316.547C243.604 323.472 218.462 304.45 207.507 274.061C196.551 243.672 203.93 213.423 223.989 206.497C244.047 199.572 269.19 218.593 280.146 248.982L267.858 253.225C263.116 240.072 255.482 229.948 247.631 224.008C239.674 217.988 232.955 217.154 228.398 218.727Z" fill="black"/>
</svg>
