<svg width="503" height="510" viewBox="0 0 503 510" fill="none" xmlns="http://www.w3.org/2000/svg">
<path d="M71.2579 257.544C46.994 216.245 59.2857 163.72 97.5291 135.045C141.167 102.325 202.769 111.991 235.319 155.227C266.578 128.457 312.387 122.423 350.514 143.522C399.561 170.665 417.318 232.429 390.175 281.477L361.675 332.976C374.439 371.843 362.431 416.218 327.789 442.193C289.604 470.824 235.832 467.737 203.068 432.907C148.708 375.12 110.578 324.472 71.2579 257.544Z" fill="white"/>
<path d="M65.652 260.837C39.6032 216.499 52.9137 160.372 93.6277 129.844C138.39 96.2819 200.763 104.551 236.313 146.092C269.31 121.23 315.158 116.529 353.659 137.835C405.847 166.716 424.742 232.435 395.861 284.623L368.706 333.689C380.858 374.388 367.868 420.264 331.686 447.393C291.013 477.89 233.498 474.744 198.332 437.36C143.65 379.231 105.225 328.195 65.652 260.837ZM101.426 140.245C65.6536 167.067 54.3819 215.99 76.8606 254.251C115.928 320.748 153.763 371.008 207.801 428.453C238.162 460.728 288.19 463.758 323.887 436.993C356.175 412.783 367.441 371.373 355.497 335.004L354.612 332.31L384.486 278.329L385.074 277.251C409.63 231.522 392.912 174.415 347.365 149.209C311.689 129.466 268.811 135.101 239.545 160.164L234.288 164.666L230.124 159.136C199.675 118.69 142.122 109.731 101.426 140.245Z" fill="black"/>
</svg>
