<svg width="525" height="465" viewBox="0 0 525 465" fill="none" xmlns="http://www.w3.org/2000/svg">
<path d="M33.8248 179.425C87.5113 54.5601 186.011 -23.0242 253.831 6.13497C283.44 18.8659 302.305 49.8394 309.697 91.091C412.802 74.1801 505.703 113.934 522.117 184.712C539.564 259.946 463.982 341.743 353.3 367.41C310.149 377.417 268.034 377.414 231.672 369.229C178.18 442.129 110.197 480.146 59.4147 458.312C-8.40459 429.152 -19.8616 304.29 33.8248 179.425Z" fill="#FF56D8"/>
<path d="M33.8252 179.425C87.5117 54.5603 186.012 -23.0242 253.831 6.13495C282.978 18.667 301.713 48.8763 309.342 89.1652L309.697 91.091C412.802 74.1803 505.703 113.934 522.117 184.712C539.564 259.946 463.982 341.743 353.301 367.41L351.278 367.872C308.835 377.415 267.466 377.286 231.672 369.229C178.598 441.559 111.259 479.55 60.6084 458.813L59.4151 458.312C-7.87432 429.38 -19.6794 306.235 32.5782 182.352L33.8252 179.425ZM245.931 24.509C221.937 14.1928 188.316 21.264 150.903 50.7326C114.183 79.6554 77.9854 127.349 52.1983 187.325C26.4113 247.301 16.7006 306.383 20.9717 352.931C25.3234 400.357 43.3209 429.622 67.3145 439.939C85.3157 447.678 108.442 445.76 135.174 431.617C161.854 417.502 190.069 392.119 215.547 357.397L223.292 346.842L236.064 349.717C269.285 357.196 308.348 357.305 348.782 347.928C400.736 335.88 443.579 310.824 471.067 281.076C498.643 251.234 509.417 218.483 502.634 189.231C496.246 161.684 474.574 138.27 440.41 123.346C406.281 108.437 361.26 102.901 312.934 110.827L293.486 114.017L290.011 94.6183C283.231 56.784 266.883 33.5176 245.931 24.509Z" fill="black"/>
</svg>
