<svg width="606" height="534" viewBox="0 0 606 534" fill="none" xmlns="http://www.w3.org/2000/svg">
<path d="M473.998 125.229C527.123 145.289 555.193 204.837 532.469 257.036C513.363 300.924 464.437 324.436 419 309.064C408.924 305.655 399.209 302.216 389.749 298.7L340.61 397.648C338.314 402.271 335.711 406.642 332.842 410.749C329.213 420.358 323.97 429.56 317.031 437.992C287.165 474.282 234.998 484.599 195.691 458.563C154.357 431.185 120.871 403.598 84.9272 367.178C51.6887 333.498 51.5787 280.119 81.5603 243.686C111.647 207.127 162.126 198.982 202.657 219.035L247.493 128.756C272.426 78.5494 333.339 58.0617 383.545 82.9949C390.27 86.3345 396.461 90.3201 402.081 94.8384C425.593 105.914 448.881 115.745 473.998 125.229Z" fill="white"/>
<path d="M476.294 119.152C532.596 140.412 562.761 203.741 538.429 259.634C518.062 306.418 465.756 331.748 416.917 315.225C408.722 312.453 400.761 309.657 392.977 306.817L346.431 400.543C344.114 405.209 341.501 409.634 338.63 413.81C334.766 423.801 329.262 433.361 322.049 442.126C290.276 480.735 234.448 492.036 192.101 463.986C150.384 436.354 116.552 408.48 80.3005 371.747C44.5172 335.489 44.635 278.331 76.5412 239.56C107.248 202.247 157.7 192.768 199.637 210.507L241.671 125.868C268.201 72.4469 333.014 50.647 386.436 77.177C393.334 80.6027 399.708 84.6729 405.523 89.2763C428.645 100.147 451.57 109.816 476.294 119.152ZM526.509 254.445C547.625 205.94 521.649 150.174 471.702 131.314C446.432 121.772 422.985 111.875 399.311 100.722L398.611 100.393L398.008 99.9083C392.751 95.6816 386.955 91.9498 380.654 88.8203C333.663 65.4838 276.651 84.6595 253.314 131.65L205.591 227.743L199.775 224.865C161.725 206.04 114.59 213.783 86.5789 247.82C58.5219 281.914 58.8597 331.515 89.5533 362.616C125.189 398.724 158.328 426.023 199.28 453.148C235.547 477.17 284.054 467.837 312.012 433.865C318.493 425.989 323.38 417.408 326.76 408.456L327.047 407.695L327.513 407.029C330.199 403.185 332.636 399.093 334.788 394.761L386.529 290.573L392.013 292.611C401.408 296.103 411.062 299.521 421.083 302.911C463.116 317.132 508.664 295.437 526.509 254.445Z" fill="black"/>
</svg>
