<svg width="462" height="463" viewBox="0 0 462 463" fill="none" xmlns="http://www.w3.org/2000/svg">
<path d="M253.759 10.6882C338.886 -16.9202 428.663 10.8014 454.279 72.6061C475.398 123.561 446.313 181.771 387.746 216.111C408.883 260.686 408.437 303.695 405.683 337.534C399.971 407.709 320.705 463.116 210.856 462.257C99.4673 461.387 5.15478 402.512 0.202895 330.756C-3.89668 271.346 54.5424 221.734 137.99 206.913C126.031 165.326 132.21 129.327 146.149 102.11C165.229 64.8546 200.265 28.037 253.759 10.6882Z" fill="#FF56D8"/>
<path d="M253.759 10.6881C338.886 -16.9202 428.663 10.8014 454.279 72.6061C475.398 123.561 446.312 181.771 387.746 216.111C408.883 260.686 408.437 303.695 405.683 337.534L405.535 339.175C398.784 408.025 321.085 462.249 213.425 462.267L210.856 462.258C99.9023 461.391 5.89112 402.971 0.264419 331.595L0.202895 330.756C-3.89669 271.346 54.5424 221.734 137.99 206.913C126.218 165.976 132.022 130.454 145.502 103.392L146.149 102.11C165.08 65.1458 199.719 28.6123 252.508 11.0983L253.759 10.6881ZM370.434 27.2262C338.301 17.3039 298.795 17.1074 259.929 29.7126C212.181 45.1981 180.98 77.9743 163.95 111.226C152.264 134.044 146.694 164.816 157.211 201.385L163.347 222.721L141.487 226.604C102.535 233.523 70.7033 248.366 49.5115 267.098C28.4846 285.685 18.6291 307.265 20.1551 329.379C22.0302 356.55 41.2057 384.273 76.2068 406.123C110.865 427.758 158.599 441.848 211.013 442.258C262.686 442.661 305.926 429.804 336.337 409.819C366.723 389.85 383.505 363.485 385.749 335.911C388.409 303.23 388.545 264.476 369.675 224.68L361.824 208.125L377.63 198.858C431.446 167.303 451.601 118.382 435.803 80.2633C425.865 56.287 402.698 37.1886 370.434 27.2262Z" fill="black"/>
</svg>
