<svg width="518" height="502" viewBox="0 0 518 502" fill="none" xmlns="http://www.w3.org/2000/svg">
<path d="M336.72 28.5537C373.008 -2.66392 427.103 -0.377169 461.263 33.1123C489.633 60.9263 496.208 102.065 481.905 136.391C504.144 159.228 515.311 192.158 509.023 225.876C498.747 280.983 445.743 317.325 390.637 307.049L326.817 295.148C275.576 346.745 226.858 399.587 171.775 462.568C136.06 503.405 73.2797 506.378 34.5174 468.376C0.326454 434.855 -3.15891 380.788 27.3055 343.801C64.7401 298.351 99.3854 258.482 134.115 221.148C123.318 201.359 119.011 177.867 123.466 153.979C133.742 98.8716 186.745 62.5286 241.852 72.8047L278.569 79.6514C297.031 63.0366 316.32 46.1036 336.72 28.5537Z" fill="white"/>
<path d="M332.481 23.6265C371.38 -9.83703 429.293 -7.33418 465.814 28.4713C495.103 57.1857 502.644 99.1303 489.452 134.946C511.168 159.063 521.827 192.678 515.414 227.068C504.48 285.704 448.082 324.373 389.446 313.439L329.012 302.169C278.772 352.876 230.815 404.937 176.669 466.848C138.541 510.444 71.4467 513.684 29.9677 473.018C-6.57512 437.192 -10.369 379.319 22.289 339.669C58.6725 295.495 92.4492 256.555 126.243 220.074C116.363 199.929 112.649 176.535 117.077 152.788C128.011 94.1517 184.409 55.4814 243.045 66.4156L276.613 72.6744C294.389 56.7119 312.928 40.4482 332.481 23.6265ZM456.713 37.7545C424.916 6.58101 374.637 4.51045 340.96 33.482C320.591 51.0049 301.339 67.906 282.918 84.4839L280.533 86.6304L240.662 79.1949C189.084 69.5769 139.474 103.593 129.856 155.17C125.686 177.534 129.716 199.511 139.822 218.035L142.065 222.146L138.875 225.575C104.251 262.796 69.6927 302.565 32.3241 347.934C4.05323 382.258 7.23012 432.52 39.0693 463.735C75.1148 499.073 133.582 496.367 166.884 458.29C222.034 395.231 270.847 342.285 322.206 290.568L324.629 288.128L391.829 300.66L393.037 300.877C444.179 309.745 493.092 275.86 502.635 224.685C508.519 193.132 498.077 162.315 477.249 140.926L474.256 137.852L475.906 133.891C489.243 101.882 483.082 63.6068 456.713 37.7545Z" fill="black"/>
</svg>
