<svg width="430" height="562" viewBox="0 0 430 562" fill="none" xmlns="http://www.w3.org/2000/svg">
<path d="M122.675 5.27423C171.998 -14.9686 238.385 24.4525 295.454 99.6111C361.975 93.3981 413.433 108.009 426.469 142.117C437.986 172.25 417.01 211.046 374.931 247.082C428.619 391.854 418.085 527.77 348.789 556.211C278.386 585.106 173.214 492.436 110.006 347.786C55.3863 348.696 14.5392 333.779 3.12833 303.925C-9.34023 271.303 16.2732 228.526 65.518 190.092C54.3208 98.2465 74.0041 25.2499 122.675 5.27423Z" fill="#FF56D8"/>
<path d="M122.675 5.27424C171.613 -14.8105 237.35 23.8401 294.115 97.8563L295.454 99.6112C361.975 93.3981 413.433 108.009 426.469 142.117C437.986 172.25 417.01 211.046 374.931 247.082C428.619 391.854 418.085 527.77 348.789 556.211L347.963 556.544C277.565 584.381 172.967 491.871 110.006 347.786C55.8135 348.689 15.1791 334.011 3.40174 304.622L3.1283 303.925C-9.34023 271.303 16.2734 228.526 65.518 190.092C54.4083 98.9639 73.6988 26.3912 121.54 5.75177L122.675 5.27424ZM196.398 34.1229C169.505 19.0826 147.217 16.8203 130.269 23.7762C113.542 30.6415 99.4284 47.5375 90.8129 76.4442C82.2286 105.246 79.9889 143.52 85.3715 187.671L86.7406 198.898L77.8236 205.858C54.505 224.058 37.907 242.452 28.6166 258.985C19.2852 275.591 18.462 288.022 21.8109 296.784C24.8842 304.824 32.5674 312.764 47.7582 318.808C62.9915 324.87 84.0206 328.216 109.673 327.789L122.997 327.566L128.333 339.777C159.045 410.06 199.576 466.753 239.873 502.029C281.278 538.274 316.941 547.662 341.196 537.708C365.058 527.914 383.644 497.064 388.047 443.628C392.337 391.568 382.261 324.367 356.179 254.036L351.33 240.962L361.922 231.891C381.704 214.951 395.445 198.24 402.942 183.378C410.423 168.546 410.888 157.37 407.788 149.258C404.289 140.106 394.685 130.979 375.044 124.831C355.567 118.734 328.923 116.572 297.314 119.524L286.246 120.558L279.526 111.706C252.074 75.5517 223.173 49.0973 196.398 34.1229Z" fill="black"/>
</svg>
