<svg width="476" height="380" viewBox="0 0 476 380" fill="none" xmlns="http://www.w3.org/2000/svg">
<path d="M276.032 32.627C318.376 15.3369 367.75 30.7245 389.549 71.0845C414.356 117.016 430.833 157.317 444.614 205.195C445.964 209.886 446.89 214.592 447.419 219.278C451.512 230.323 453.739 242.273 453.715 254.745C453.605 310.801 408.073 356.154 352.016 356.045L190.63 355.727C173.776 355.694 157.891 351.553 143.917 344.257C129.43 338.2 116.537 328.175 107.013 314.38C69.3562 259.837 45.9959 211.78 25.6761 149.806C12.1133 108.44 32.7386 64.1866 71.6151 44.8718C122.355 19.6633 182.579 46.5426 204.274 98.6384C208.273 108.241 212.413 117.642 216.743 126.954C215.514 87.1258 236.929 48.5941 276.032 32.627Z" fill="white"/>
<path d="M273.575 26.6073C318.723 8.17275 371.756 24.4635 395.267 67.994C420.29 114.324 436.946 155.057 450.86 203.396C452.236 208.178 453.203 212.978 453.785 217.763C457.969 229.315 460.24 241.776 460.215 254.756C460.097 314.402 411.649 362.66 352.003 362.543L190.616 362.226C172.79 362.191 155.966 357.83 141.147 350.14C125.667 343.612 111.867 332.849 101.664 318.071C63.6382 262.993 40.0049 214.37 19.499 151.829C4.84884 107.145 27.1963 59.6799 68.7224 39.0487C123.258 11.954 187.324 41.0298 210.274 96.1378L211.768 99.6991C212 100.249 212.234 100.797 212.467 101.345C219.141 68.9503 240.319 40.1869 273.575 26.6073ZM383.829 74.1719C363.743 36.9827 318.03 22.4975 278.489 38.6427C242.188 53.4657 222.084 89.3103 223.239 126.752L210.849 129.693C206.481 120.3 202.305 110.819 198.273 101.136C177.833 52.0525 121.451 27.3686 74.5072 50.6908C38.2807 68.689 19.3778 109.731 31.8526 147.779C51.9862 209.185 75.0746 256.677 112.362 310.685C120.875 323.016 132.297 332.08 145.173 337.723L146.424 338.258L146.679 338.365L146.926 338.494C159.997 345.318 174.857 349.194 190.642 349.225L352.029 349.543C404.495 349.645 447.112 307.197 447.215 254.73C447.238 243.046 445.151 231.865 441.323 221.535L441.048 220.792L440.959 220.005C440.471 215.678 439.616 211.33 438.368 206.992C424.719 159.574 408.422 119.705 383.829 74.1719Z" fill="black"/>
</svg>
