<svg width="549" height="458" viewBox="0 0 549 458" fill="none" xmlns="http://www.w3.org/2000/svg">
<path d="M26.4612 163.08C72.9131 49.9139 162.121 -20.6715 225.712 5.42368C281.299 28.2344 298.912 117.368 271.439 215.031C275.906 215.413 280.328 215.863 284.702 216.383C288.868 202.344 293.871 188.113 299.727 173.846C347.854 56.5994 439.657 0.915039 499.372 25.4194C559.087 49.924 564.102 145.339 515.975 262.586C496.476 310.089 469.7 349.935 442.581 380.547C431.705 392.824 418.412 405.26 401.289 415.81C392.819 421.028 384.449 425.207 376.367 428.737C337.22 445.831 287.561 456.917 233.194 457.545C161.467 458.373 98.1307 440.024 55.1276 414.211C42.9747 406.916 32.0544 398.391 22.9025 386.398C11.5816 371.564 6.46761 355.924 3.67592 339.384C-4.53317 290.747 0.151205 227.176 26.4612 163.08Z" fill="#FF56D8"/>
<path d="M26.4609 163.08C72.9128 49.9141 162.121 -20.6716 225.713 5.42367C281.299 28.2347 298.911 117.368 271.438 215.031C275.905 215.413 280.328 215.863 284.702 216.383C288.868 202.344 293.871 188.113 299.727 173.847C347.854 56.5996 439.657 0.914707 499.372 25.4188C559.087 49.9234 564.102 145.339 515.975 262.586L515.056 264.806C495.639 311.331 469.276 350.413 442.581 380.547L441.555 381.698C430.87 393.6 417.877 405.59 401.289 415.809L399.702 416.776C391.774 421.548 383.943 425.428 376.366 428.737L374.523 429.533C335.667 446.174 286.711 456.927 233.193 457.545L229.838 457.569C160.61 457.794 99.4301 440.193 57.1582 415.415L55.1279 414.211C43.3548 407.144 32.7381 398.922 23.7656 387.513L22.9023 386.398C11.5814 371.564 6.46743 355.924 3.67574 339.384C-4.40499 291.507 0.00845337 229.159 25.2441 166.084L26.4609 163.08ZM218.12 23.9266C195.987 14.8442 165.536 21.2327 132.069 47.7127C99.1709 73.7434 67.1328 116.664 44.9629 170.674C20.041 231.388 15.8232 291.18 23.3974 336.056C25.841 350.533 30.049 362.795 38.8017 374.264C45.966 383.652 54.6886 390.62 65.4209 397.062C104.915 420.769 164.533 438.336 232.963 437.546C284.865 436.946 331.856 426.35 368.363 410.408C375.775 407.171 383.284 403.412 390.799 398.782C405.841 389.515 417.67 378.506 427.611 367.284C453.397 338.177 478.909 300.216 497.473 254.991C520.864 198.005 530.592 148.002 528.156 110.521C525.719 73.0239 511.783 52.1305 491.779 43.9217C470.533 35.2034 439.939 39.5638 406.677 62.8582C373.86 85.8411 341.077 125.777 318.228 181.441C312.627 195.089 307.848 208.685 303.876 222.072L299.08 238.231L282.343 236.243C278.193 235.75 273.988 235.322 269.734 234.958L245.637 232.897L252.186 209.615C265.258 163.142 267.258 119.793 260.158 86.3055C252.996 52.527 237.481 31.8719 218.12 23.9266Z" fill="black"/>
</svg>
