<svg width="438" height="441" viewBox="0 0 438 441" fill="none" xmlns="http://www.w3.org/2000/svg">
<path d="M59.6971 82.6947C101.452 45.2935 165.622 48.8228 203.023 90.5779L213.98 102.81C237.368 71.6693 277.771 55.7394 317.68 66.9367C362.37 79.4756 392.229 122.449 385.394 168.461C377.167 223.836 365.941 270.57 346.416 320.994C344.366 328.35 341.476 335.51 337.756 342.321C322.069 379.237 283.739 399.017 244.939 395.082C218.36 394.105 192.198 382.748 173.051 361.373L51.8129 226.021C14.4118 184.266 17.9417 120.096 59.6971 82.6947Z" fill="white"/>
<path d="M55.3607 77.8541C99.79 38.0578 168.07 41.8127 207.866 86.2418L213.736 92.796C239.132 63.73 279.469 49.4653 319.436 60.6785C367.064 74.0417 399.172 119.951 391.824 169.416C383.557 225.06 372.253 272.207 352.585 323.064C350.439 330.675 347.445 338.087 343.615 345.151C326.646 384.718 285.635 405.662 244.48 401.568C216.287 400.474 188.529 388.395 168.21 365.71L46.9719 230.359C7.17569 185.93 10.9318 117.651 55.3607 77.8541ZM198.182 94.9157C163.176 55.8346 103.116 52.5312 64.0344 87.5372C24.9533 122.543 21.6501 182.604 56.656 221.685L177.894 357.036C195.535 376.731 219.527 387.337 244.012 388.536L245.179 388.586L245.388 388.595L245.595 388.615C281.875 392.295 317.32 373.795 331.775 339.779L331.899 339.486L332.052 339.205C335.532 332.834 338.237 326.135 340.156 319.249L340.241 318.943L340.356 318.648C359.672 268.762 370.793 222.511 378.965 167.506C385.288 124.948 357.676 84.9103 315.925 73.1958C278.782 62.775 241.075 77.5592 219.178 106.713L214.422 113.046L198.182 94.9157Z" fill="black"/>
</svg>
