<svg width="504" height="473" viewBox="0 0 504 473" fill="none" xmlns="http://www.w3.org/2000/svg">
<path d="M67.8667 12.202C141.75 -26.3961 248.414 29.5414 315.206 138.174C369.663 89.3649 429.373 70.2721 467.968 95.2186C522.371 130.383 514.218 239.735 449.756 339.463C407.594 404.692 349.567 443.287 302.996 463.101C220.894 498.032 107.06 436.803 42.1294 312.518C-22.8944 188.055 -11.3714 53.5985 67.8667 12.202Z" fill="#FF56D8"/>
<path d="M67.8664 12.202C141.749 -26.3961 248.415 29.5414 315.206 138.174C369.664 89.3651 429.374 70.2721 467.969 95.2186C522.372 130.384 514.218 239.736 449.757 339.463L448.766 340.986C406.689 405.293 349.204 443.442 302.996 463.101L302.032 463.507C220.649 497.286 108.58 437.273 43.6604 315.42L42.1291 312.518C-22.6406 188.541 -11.4599 54.6486 66.9416 12.6913L67.8664 12.202ZM185.055 37.7655C145.106 17.2372 107.672 14.6686 78.51 29.2225L77.1282 29.9286C45.6684 46.3642 25.1372 82.6288 20.8274 132.918C16.5415 182.928 28.8348 243.878 59.8567 303.258C90.7971 362.481 132.949 405.789 175.966 430.105C219.109 454.493 261.442 459.046 295.166 444.698C338.859 426.108 393.393 389.819 432.96 328.605C463.732 280.999 480.49 231.903 483.492 191.642C486.558 150.523 475.286 123.763 457.112 112.016C444.169 103.65 426.069 101.541 403.142 108.236C380.194 114.938 354.213 130.07 328.554 153.067L310.715 169.056L298.168 148.648C266.344 96.888 225.517 58.5576 185.055 37.7655Z" fill="black"/>
</svg>
