<svg width="629" height="338" viewBox="0 0 629 338" fill="none" xmlns="http://www.w3.org/2000/svg">
<path d="M212.067 43.4376C246.623 1.52135 307.768 -5.5565 350.88 26.4981C353.828 28.0901 356.725 29.8414 359.561 31.756L421.695 73.7159L448.892 46.9552C488.848 7.63792 553.112 8.15685 592.43 48.1134C631.747 88.0698 631.229 152.333 591.273 191.651L510.947 270.692C481.935 299.239 440.109 306.784 404.321 293.482C388.828 291.62 373.534 286.146 359.713 276.813L310.281 243.431L272.401 289.381C267.634 295.164 262.359 300.283 256.696 304.729C253.219 308.159 249.417 311.367 245.288 314.31C211.236 338.575 164.526 337.544 134.156 308.59C78.7788 255.794 45.3061 207.081 14.0595 139.03C-3.36328 101.085 10.4436 56.6519 44.3476 32.4913C89.7114 0.16489 152.49 16.2437 181.434 63.63C183.428 66.8958 185.429 70.1226 187.434 73.3175L212.067 43.4376Z" fill="white"/>
<path d="M207.051 39.302C243.719 -5.17667 308.519 -12.7862 354.375 21.0002C357.37 22.6337 360.314 24.4214 363.198 26.3684L420.926 65.3527L444.332 42.3215C486.848 0.486435 555.227 1.03868 597.062 43.5539C638.897 86.0692 638.345 154.447 595.83 196.282L515.505 275.323C484.822 305.516 440.678 313.62 402.774 299.836C386.544 297.767 370.542 291.969 356.075 282.198L311.538 252.122L277.416 293.515C272.431 299.562 266.918 304.929 261.002 309.607C257.351 313.183 253.371 316.531 249.06 319.603C212.736 345.487 162.523 344.615 129.67 313.294C73.6547 259.889 39.7165 210.486 8.15168 141.741C-10.6816 100.724 4.34916 53.0125 40.5745 27.1975C89.3188 -7.5379 156.275 9.97067 186.98 60.2414C187.378 60.894 187.778 61.5448 188.177 62.1945L207.051 39.302ZM347.001 31.7131C306.654 1.71445 249.424 8.34121 217.082 47.5715L186.716 84.4045L181.927 76.7717C179.91 73.557 177.896 70.3078 175.886 67.0178C148.705 22.5161 90.1027 7.86697 48.1194 37.7844C16.5371 60.2905 3.95408 101.445 19.9661 136.318C50.8944 203.675 83.9016 251.697 138.641 303.885C166.527 330.471 209.736 331.661 241.515 309.016C245.36 306.276 248.898 303.29 252.131 300.101L252.393 299.842L252.682 299.615C257.98 295.457 262.918 290.664 267.385 285.245L309.023 234.738L363.35 271.425C375.891 279.894 389.712 284.962 403.739 286.854L405.096 287.028L405.863 287.119L406.585 287.388C440.097 299.845 479.241 292.77 506.388 266.058L586.713 187.017C624.111 150.217 624.595 90.0687 587.796 52.6711C550.997 15.2734 490.847 14.7878 453.45 51.5871L422.463 82.0774L355.922 37.1418C353.266 35.348 350.551 33.708 347.79 32.217L347.377 31.9934L347.001 31.7131Z" fill="black"/>
</svg>
