<svg width="682" height="465" viewBox="0 0 682 465" fill="none" xmlns="http://www.w3.org/2000/svg">
<path d="M7.00382 161.831C31.9688 54.7275 116.334 -16.2831 195.439 3.22478C248.804 16.3849 286.139 67.3778 297.124 132.051C326.424 123.907 353.271 125.825 375.003 127.643C410.677 130.629 444.783 147.502 471.256 191.893C549.464 153.093 633.595 163.359 667.337 219.154C704.533 280.663 666.406 374.212 582.179 428.101C497.951 481.99 402.174 474.232 361.559 414.926C360.854 413.895 359.987 412.875 359.282 411.834C345.122 390.908 331.712 365.326 322.592 335.776C319.212 338.45 315.758 341.088 312.228 343.679C246.951 391.598 178.78 397.792 132.98 395.037C122.912 394.431 114.37 393.385 105.033 391.082C25.9283 371.574 -17.9611 268.935 7.00382 161.831Z" fill="#FF56D8"/>
<path d="M7.00355 161.831C31.9686 54.7276 116.334 -16.2831 195.439 3.22478C248.803 16.3849 286.139 67.3779 297.124 132.051C326.424 123.907 353.271 125.825 375.003 127.644C410.397 130.606 444.249 147.239 470.633 190.858L471.255 191.893C549.463 153.094 633.595 163.359 667.337 219.154C704.533 280.663 666.406 374.212 582.178 428.101L580.202 429.353C497.117 481.452 403.346 473.892 362.521 416.306L361.559 414.926C360.942 414.024 360.201 413.13 359.553 412.223L359.282 411.834C345.122 390.908 331.712 365.326 322.591 335.776C319.212 338.45 315.758 341.088 312.228 343.679C247.971 390.849 180.909 397.588 135.143 395.159L132.979 395.037C123.54 394.47 115.444 393.514 106.775 391.499L105.033 391.082C26.5461 371.726 -17.2731 270.534 6.43129 164.341L7.00355 161.831ZM190.65 22.6427C158.718 14.7681 124.235 24.7307 93.7975 50.3498C63.3425 75.9838 38.0898 116.568 26.4811 166.371C14.8735 216.17 19.4666 264.223 35.3815 301.442C51.3081 338.688 77.8199 363.772 109.822 371.664C117.63 373.59 124.897 374.515 134.18 375.073C177.093 377.654 240.098 371.818 300.393 327.557C303.721 325.114 306.982 322.623 310.179 320.093L333.087 301.964L341.702 329.877C350.157 357.273 362.623 381.083 375.846 400.625C375.87 400.657 375.977 400.803 376.308 401.236C376.622 401.646 377.355 402.595 378.06 403.625C409.953 450.196 491.785 462.192 571.4 411.254C610.38 386.314 638.066 352.561 651.77 318.937C665.509 285.228 664.682 253.414 650.222 229.504C637.15 207.887 613.732 193.947 583.316 189.873C552.796 185.786 516.213 191.916 480.144 209.81L463.56 218.036L454.078 202.137C430.934 163.329 402.627 150.025 373.335 147.573C351.706 145.763 328.026 144.22 302.479 151.32L281.119 157.258L277.406 135.401C267.239 75.5408 233.678 33.2538 190.65 22.6427Z" fill="black"/>
</svg>
