<svg width="420" height="466" viewBox="0 0 420 466" fill="none" xmlns="http://www.w3.org/2000/svg">
<path d="M167.019 52.351C215.578 7.29554 269.895 -11.7694 313.027 7.43404C372.045 33.7099 391.833 123.488 366.717 223.47C420.358 301.703 436.543 378.627 400.821 416.082C372.289 446 317.036 444.031 254.834 416.611C207.158 459.416 154.369 477.159 112.246 458.406C54.6912 432.781 34.4437 346.763 56.7697 249.784C0.272106 169.791 -17.4335 90.2873 19.0734 52.0083C47.9048 21.7774 104.02 24.1052 167.019 52.351Z" fill="#FF56D8"/>
<path d="M167.019 52.3509C215.578 7.29561 269.895 -11.7693 313.028 7.43391C372.045 33.7098 391.833 123.488 366.717 223.47C420.359 301.702 436.542 378.627 400.822 416.082C372.289 446 317.036 444.031 254.834 416.611C207.158 459.416 154.369 477.159 112.246 458.406C54.6914 432.781 34.4436 346.762 56.7696 249.784C0.272236 169.791 -17.4336 90.2872 19.0733 52.0081C47.9048 21.7774 104.021 24.1052 167.019 52.3509ZM304.893 25.7054C272.82 11.4261 227.057 23.929 180.622 67.013L170.917 76.0169L158.836 70.6009C128.958 57.2048 101.931 50.5367 79.9718 50.2494C58.0774 49.9628 42.9621 55.9398 33.547 65.8119C21.6692 78.2662 16.3623 99.8298 22.6573 131.335C28.8782 162.47 45.9331 199.774 73.1056 238.246L78.2667 245.553L76.2599 254.271C65.6318 300.437 65.4352 342.849 73.923 375.874C82.4233 408.949 98.9415 430.59 120.381 440.135C151.696 454.077 196.026 442.532 241.473 401.729L251.083 393.101L262.902 398.311C292.377 411.305 318.986 417.694 340.597 417.849C362.133 418.003 377.029 412.052 386.349 402.28C397.972 390.092 403.305 369.207 397.619 338.736C391.992 308.577 375.997 272.372 350.222 234.781L345.123 227.343L347.32 218.598C359.288 170.956 360.238 126.872 351.976 92.4847C343.692 58.0096 326.868 35.4894 304.893 25.7054Z" fill="black"/>
</svg>
