<svg width="409" height="421" viewBox="0 0 409 421" fill="none" xmlns="http://www.w3.org/2000/svg">
<path d="M179.295 50.577C209.374 6.66358 268.842 -6.78033 315.125 20.9325C363.219 49.7302 378.862 112.064 350.065 160.158L325.209 201.668C339.487 215.184 354.392 229.032 370.14 243.435C410.6 280.442 412.313 343.91 373.072 382.262C339.551 415.023 286.815 418.51 250.469 388.805C241.9 381.801 233.594 374.885 225.515 368.026C195.905 413.578 135.307 427.878 88.3067 399.735C40.2127 370.937 24.5696 308.604 53.3673 260.51L77.1925 220.718C60.3221 201.058 43.3422 180.261 25.6729 157.772C-3.14066 121.1 1.11833 68.6921 34.4366 36.1287C73.5487 -2.09686 136.822 1.74592 172.652 42.9686C174.872 45.5225 177.087 48.0577 179.295 50.577Z" fill="white"/>
<path d="M178.89 40.2326C212.146 -1.12901 271.644 -12.6783 318.465 15.3566C369.639 45.9985 386.284 112.324 355.643 163.498L333.469 200.528C346.561 212.88 360.192 225.528 374.528 238.64C417.682 278.111 419.584 345.895 377.616 386.911C341.835 421.882 285.379 425.731 246.357 393.838C239.671 388.373 233.143 382.961 226.757 377.586C193.983 421.256 132.848 433.982 84.969 405.313C33.795 374.671 17.1503 308.345 47.7922 257.171L69.2151 221.39C53.2753 202.701 37.2173 182.986 20.5627 161.789C-10.3672 122.423 -5.71955 66.2891 29.8948 31.4816C71.7914 -9.46537 139.379 -5.22137 177.56 38.7053C178.003 39.2153 178.447 39.724 178.89 40.2326ZM311.787 26.51C268.471 0.573191 212.808 13.1548 184.658 54.2512L179.927 61.1594L174.408 54.8625C172.195 52.3375 169.975 49.7953 167.748 47.2336C134.268 8.71491 75.3083 5.27431 38.9807 40.7785C7.95873 71.0978 4.0883 119.779 30.7854 153.758C48.4077 176.187 65.3277 196.91 82.1262 216.486L85.176 220.04L58.9455 263.85C31.9921 308.864 46.6329 367.206 91.6467 394.159C135.636 420.499 192.355 407.116 220.066 364.485L224.092 358.291L229.723 363.072C237.769 369.904 246.044 376.793 254.583 383.773C288.252 411.291 337.269 408.168 368.53 377.614C405.044 341.929 403.52 282.775 365.754 248.233C349.983 233.807 335.05 219.934 320.741 206.389L316.954 202.804L344.489 156.82C371.442 111.805 356.801 53.4634 311.787 26.51Z" fill="black"/>
</svg>
