<svg width="554" height="577" viewBox="0 0 554 577" fill="none" xmlns="http://www.w3.org/2000/svg">
<path d="M98.7745 162.704C64.1971 120.679 71.2479 58.1605 114.793 25.4773C154.485 -4.31422 210.553 1.48746 242.828 39.2163C358.85 174.846 435.693 276.588 531.996 424.108C559.105 465.636 548.911 520.976 509.268 550.731C465.644 583.473 403.53 572.749 372.788 527.723C332.148 468.202 295.164 415.886 257.583 365.117C254.557 365.934 251.466 366.621 248.315 367.167L125.335 388.46C70.1002 398.024 17.5702 361 8.00627 305.765C-1.55746 250.53 35.4662 198 90.7009 188.436L116.239 184.015C110.511 176.998 104.694 169.898 98.7745 162.704Z" fill="white"/>
<path d="M98.7745 162.704L93.7551 166.834L93.7551 166.834L98.7745 162.704ZM114.793 25.4773L110.891 20.2787L110.891 20.2787L114.793 25.4773ZM242.828 39.2163L247.768 34.9911L247.768 34.991L242.828 39.2163ZM531.996 424.108L537.439 420.555L537.439 420.555L531.996 424.108ZM509.268 550.731L513.17 555.929L513.17 555.929L509.268 550.731ZM372.788 527.723L367.419 531.388V531.388L372.788 527.723ZM257.583 365.117L262.808 361.249L260.169 357.685L255.888 358.841L257.583 365.117ZM248.315 367.167L249.424 373.571L249.424 373.571L248.315 367.167ZM125.335 388.46L124.226 382.055L124.226 382.055L125.335 388.46ZM8.00627 305.765L1.60156 306.874L1.60157 306.874L8.00627 305.765ZM90.7009 188.436L89.592 182.032L89.5919 182.032L90.7009 188.436ZM116.239 184.015L117.348 190.419L128.309 188.521L121.274 179.904L116.239 184.015ZM98.7745 162.704L103.794 158.574C71.5358 119.368 78.1544 61.1039 118.694 30.6759L114.793 25.4773L110.891 20.2787C64.3415 55.217 56.8584 121.991 93.7551 166.834L98.7745 162.704ZM114.793 25.4773L118.694 30.6759C155.681 2.91488 207.873 8.35361 237.889 43.4416L242.828 39.2163L247.768 34.991C213.234 -5.37865 153.288 -11.5433 110.891 20.2787L114.793 25.4773ZM242.828 39.2163L237.889 43.4416C353.739 178.87 430.412 280.389 526.553 427.661L531.996 424.108L537.439 420.555C440.974 272.787 363.961 170.821 247.768 34.9911L242.828 39.2163ZM531.996 424.108L526.553 427.661C551.76 466.275 542.315 517.8 505.366 545.532L509.268 550.731L513.17 555.929C555.507 524.153 566.451 464.997 537.439 420.555L531.996 424.108ZM509.268 550.731L505.366 545.532C464.748 576.019 406.84 566.069 378.156 524.058L372.788 527.723L367.419 531.388C400.22 579.428 466.54 590.928 513.17 555.929L509.268 550.731ZM372.788 527.723L378.156 524.058C337.479 464.484 300.447 412.098 262.808 361.249L257.583 365.117L252.359 368.984C289.88 419.673 326.816 471.921 367.419 531.388L372.788 527.723ZM257.583 365.117L255.888 358.841C253.052 359.608 250.157 360.251 247.206 360.762L248.315 367.167L249.424 373.571C252.775 372.991 256.061 372.261 259.278 371.392L257.583 365.117ZM248.315 367.167L247.207 360.762L124.226 382.055L125.335 388.46L126.444 394.864L249.424 373.571L248.315 367.167ZM125.335 388.46L124.226 382.055C72.5284 391.006 23.3624 356.354 14.411 304.656L8.00627 305.765L1.60157 306.874C11.7779 365.646 67.672 405.041 126.444 394.864L125.335 388.46ZM8.00627 305.765L14.411 304.656C5.4597 252.958 40.1124 203.792 91.8099 194.841L90.7009 188.436L89.5919 182.032C30.82 192.208 -8.57462 248.102 1.60156 306.874L8.00627 305.765ZM90.7009 188.436L91.8099 194.841L117.348 190.419L116.239 184.015L115.13 177.61L89.592 182.032L90.7009 188.436ZM116.239 184.015L121.274 179.904C115.541 172.882 109.719 165.775 103.794 158.574L98.7745 162.704L93.7551 166.834C99.6685 174.021 105.481 181.115 111.204 188.125L116.239 184.015Z" fill="black"/>
</svg>
