<svg width="477" height="547" viewBox="0 0 477 547" fill="none" xmlns="http://www.w3.org/2000/svg">
<path d="M30.7084 22.5531C80.9162 -22.1502 175.419 1.6993 243.746 75.5482C328.33 23.886 424.582 26.8585 461.611 83.4506C499.722 141.697 460.662 234.687 374.37 291.149C352.322 305.574 329.324 316.218 306.665 323.102C300.377 343.352 292.232 364.143 282.225 384.932C227.945 497.694 139.492 567.708 84.6596 541.314C29.8267 514.919 29.3779 402.11 83.6576 289.348C86.3179 283.821 89.0618 278.398 91.8783 273.083C81.621 264.523 71.7042 254.951 62.3217 244.413C-6.253 167.395 -20.4069 68.0647 30.7084 22.5531Z" fill="#FF56D8"/>
<path d="M30.7083 22.553C80.9159 -22.1502 175.419 1.69951 243.745 75.5481C328.33 23.886 424.582 26.8588 461.611 83.4505C499.722 141.697 460.662 234.687 374.37 291.149C352.322 305.574 329.324 316.218 306.665 323.102C300.377 343.352 292.232 364.143 282.225 384.932C227.945 497.694 139.492 567.708 84.6595 541.314C29.827 514.919 29.3779 402.11 83.6575 289.348C86.3178 283.821 89.0617 278.398 91.8782 273.083C81.6211 264.523 71.7039 254.951 62.3216 244.413C-6.25282 167.395 -20.4069 68.0645 30.7083 22.553ZM125.584 23.9974C91.2951 15.4296 62.6549 20.8881 44.0081 37.4905C25.0302 54.3879 16.3144 82.9323 21.4319 118.847C26.5244 154.586 45.2192 195.13 77.2591 231.115C85.9885 240.919 95.1968 249.803 104.694 257.729L117.144 268.119L109.551 282.449C106.854 287.538 104.226 292.732 101.679 298.023C75.561 352.281 63.0747 405.682 63.2415 447.639C63.4144 491.109 76.6855 515.279 93.3343 523.293L94.1223 523.66C110.834 531.155 137.685 526.183 171.238 499.624C204.136 473.584 238.087 430.516 264.204 376.258C273.794 356.337 281.575 336.461 287.566 317.17L290.709 307.047L300.852 303.966C321.645 297.649 342.919 287.827 363.419 274.413C403.68 248.07 432.156 213.666 446.203 180.224C460.304 146.651 459.194 116.285 444.875 94.4017C430.957 73.1289 404.736 60.1007 369.82 58.8919C334.997 57.6864 293.606 68.5297 254.17 92.6165L240.191 101.156L229.066 89.1312C197.155 54.6412 159.733 32.5301 125.584 23.9974Z" fill="black"/>
</svg>
