<svg width="551" height="466" viewBox="0 0 551 466" fill="none" xmlns="http://www.w3.org/2000/svg">
<path d="M172.146 4.09132C237.368 -8.89901 292.716 10.3116 330.879 43.8129C361.34 70.5528 375.94 130.214 368.295 196.78C443.816 188.563 527.54 203.203 546.003 256.73C569.539 324.962 495.749 413.235 396.006 449.6C296.263 485.964 200.766 458.435 172.146 392.175C168.709 384.217 165.507 377.081 162.413 368.616C150.765 336.739 144.295 292.808 151.617 242.715C94.1196 234.474 10.3732 205.296 1.10242 156.1C-11.5083 89.1797 86.4726 21.1554 172.146 4.09132Z" fill="#FF56D8"/>
<path d="M172.146 4.09139C237.367 -8.89891 292.716 10.311 330.879 43.8121C361.34 70.552 375.94 130.213 368.295 196.78C443.816 188.563 527.539 203.203 546.003 256.73C569.538 324.962 495.749 413.235 396.006 449.599C297.042 485.68 202.258 458.861 172.829 393.72L172.146 392.174C168.924 384.714 165.908 377.975 162.995 370.187L162.413 368.616C150.764 336.739 144.295 292.807 151.617 242.715C94.5687 234.538 11.6801 205.751 1.33289 157.25L1.10242 156.1C-11.4097 89.7024 84.9487 22.2181 170.137 4.50057L172.146 4.09139ZM317.684 58.8424C284.047 29.3142 234.976 11.9696 176.053 23.7057C136.314 31.6208 93.4323 51.5236 62.4296 76.8805C30.4387 103.046 16.5545 130.096 20.7567 152.396L20.8954 153.087C24.0109 167.595 39.3319 183.092 67.1366 196.836C94.1007 210.164 127.277 219.022 154.455 222.918L174.307 225.763L171.407 245.608C164.56 292.45 170.701 333.026 181.198 361.751C184.041 369.531 186.94 375.985 190.507 384.244C201.837 410.475 227.058 430.603 262.546 440.044C298.009 449.477 342.617 447.776 389.155 430.809C435.876 413.776 476.102 384.674 501.586 352.66C527.433 320.188 535.708 288.218 527.097 263.252C520.972 245.495 503.034 231.386 473.058 222.834C443.558 214.417 406.482 212.743 370.458 216.663L345.569 219.371L348.426 194.498C352.019 163.211 350.309 134.068 344.449 110.114C338.517 85.8654 328.762 68.5665 317.684 58.8424Z" fill="black"/>
</svg>
