<svg width="595" height="513" viewBox="0 0 595 513" fill="none" xmlns="http://www.w3.org/2000/svg">
<path d="M77.9033 323.742C37.1 285.305 35.1817 221.067 73.6187 180.264L155.73 93.0969C178.472 68.9546 210.247 58.4271 240.855 61.8149C264.329 62.9321 287.13 73.0524 303.657 91.8653C330.458 122.374 353.532 151.001 374.387 180.029C405.965 139.544 463.682 128.677 508.171 156.501C555.698 186.225 570.13 248.849 540.406 296.377L468.715 411.006C464.115 418.361 458.726 424.923 452.729 430.652C446.916 437.749 439.974 444.091 432.009 449.382C386.435 479.651 324.965 464.475 297.274 417.354C274.501 378.602 252.97 343.968 230.325 309.963L221.382 319.458C182.945 360.261 118.707 362.179 77.9033 323.742Z" fill="white"/>
<path d="M73.4473 328.47C30.031 287.571 27.9899 219.221 68.8884 175.804L151 88.637C175.149 63.0012 208.874 51.7988 241.359 55.3295C266.43 56.5723 290.836 67.4174 308.542 87.5725C333.385 115.854 355.073 142.567 374.783 169.502C409.281 131.845 466.764 122.934 511.618 150.986C562.189 182.614 577.546 249.249 545.918 299.82L474.227 414.45C469.414 422.146 463.781 429.03 457.515 435.062C451.542 442.299 444.47 448.79 436.4 454.26L435.606 454.793C386.826 487.192 321.191 470.877 291.671 420.644C270.471 384.57 250.363 352.097 229.437 320.385L226.115 323.912C185.216 367.328 116.864 369.369 73.4473 328.47ZM78.3512 184.718C42.3757 222.909 44.1712 283.032 82.3615 319.008C120.552 354.983 180.676 353.188 216.652 314.998L231.204 299.549L235.736 306.357C258.458 340.479 280.054 375.218 302.879 414.058C328.741 458.066 386.047 472.104 428.414 443.965C435.37 439.344 441.482 433.867 446.675 427.76L447.701 426.531L447.953 426.223L448.24 425.948C453.85 420.59 458.895 414.449 463.205 407.557L534.896 292.927C562.716 248.444 549.209 189.83 504.725 162.009C463.089 135.969 409.065 146.137 379.513 184.023L374.174 190.869L369.109 183.819C348.4 154.995 325.464 126.535 298.774 96.1523C283.472 78.7334 262.356 69.3426 240.547 68.3046L240.344 68.2949L240.141 68.2725C211.474 65.0996 181.745 74.958 160.463 97.5511L78.3512 184.718Z" fill="black"/>
</svg>
