<svg width="265" height="86" viewBox="0 0 265 86" fill="none" xmlns="http://www.w3.org/2000/svg">
<g filter="url(#filter0_d_1366_132)">
<ellipse cx="132.175" cy="38.7759" rx="128.175" ry="38.7759" fill="#141497"/>
<path d="M132.175 0.5C167.534 0.5 199.527 4.83669 222.663 11.8359C234.234 15.3365 243.563 19.4943 249.986 24.0889C256.422 28.6923 259.85 33.663 259.85 38.7764C259.849 43.8895 256.422 48.8596 249.986 53.4629C243.563 58.0575 234.234 62.2152 222.663 65.7158C199.527 72.7151 167.534 77.0518 132.175 77.0518C96.8153 77.0518 64.8228 72.7151 41.6865 65.7158C30.1152 62.2152 20.7871 58.0575 14.3633 53.4629C7.92739 48.8596 4.50021 43.8895 4.5 38.7764C4.5 33.663 7.92719 28.6923 14.3633 24.0889C20.7871 19.4943 30.1152 15.3365 41.6865 11.8359C64.8228 4.83669 96.8153 0.5 132.175 0.5Z" stroke="white"/>
</g>
<path d="M90.7155 50.0916C87.7458 50.0916 85.5185 49.3386 84.0337 47.8325C82.5488 46.3053 81.8064 44.0143 81.8064 40.9598V33.2598C81.8064 30.1628 82.5488 27.8507 84.0337 26.3234C85.5185 24.775 87.7564 24.0007 90.7473 24.0007C93.6746 24.0007 95.8382 24.6901 97.2382 26.0689C98.6594 27.4265 99.4549 29.6113 99.6246 32.6234L96.4428 32.9416C96.2306 30.6507 95.7109 29.0704 94.8837 28.2007C94.0776 27.3098 92.6882 26.8643 90.7155 26.8643C88.6155 26.8643 87.1306 27.3522 86.2609 28.328C85.4125 29.2825 84.9882 30.9265 84.9882 33.2598V40.9598C84.9882 43.2507 85.4125 44.8734 86.2609 45.828C87.1306 46.7613 88.6155 47.228 90.7155 47.228C92.6882 47.228 94.0776 46.8037 94.8837 45.9553C95.7109 45.0856 96.2306 43.5265 96.4428 41.278L99.6246 41.5962C99.4549 44.5659 98.6594 46.7295 97.2382 48.0871C95.8382 49.4234 93.664 50.0916 90.7155 50.0916ZM104.919 49.7734V24.3189H108.101V46.9098H119.237V49.7734H104.919ZM132.168 50.0916C129.368 50.0916 127.236 49.3174 125.772 47.7689C124.309 46.1992 123.577 43.9295 123.577 40.9598V33.2598C123.577 30.2477 124.309 27.9568 125.772 26.3871C127.257 24.7962 129.399 24.0007 132.199 24.0007C134.978 24.0007 137.099 24.7962 138.563 26.3871C140.027 27.9568 140.759 30.2477 140.759 33.2598V40.9598C140.759 43.9295 140.027 46.1992 138.563 47.7689C137.099 49.3174 134.968 50.0916 132.168 50.0916ZM132.168 47.228C134.119 47.228 135.509 46.7507 136.336 45.7962C137.163 44.8416 137.577 43.2295 137.577 40.9598V33.2598C137.577 30.9477 137.163 29.3037 136.336 28.328C135.509 27.3522 134.119 26.8643 132.168 26.8643C130.216 26.8643 128.827 27.3522 127.999 28.328C127.172 29.3037 126.759 30.9477 126.759 33.2598V40.9598C126.759 43.2295 127.172 44.8416 127.999 45.7962C128.827 46.7507 130.216 47.228 132.168 47.228ZM153.466 49.9643C151.557 49.9643 149.775 49.6568 148.121 49.0416C146.466 48.4265 144.982 47.3022 143.666 45.6689L145.957 43.5053C146.848 44.7143 147.909 45.6159 149.139 46.2098C150.391 46.8037 151.865 47.1007 153.562 47.1007C155.132 47.1007 156.394 46.7401 157.348 46.0189C158.324 45.2765 158.812 44.2795 158.812 43.028C158.812 41.8189 158.398 40.8962 157.571 40.2598C156.744 39.6022 155.11 38.9128 152.671 38.1916C149.574 37.3007 147.463 36.3356 146.339 35.2962C145.215 34.2568 144.653 32.7825 144.653 30.8734C144.653 28.6674 145.385 27.0022 146.848 25.878C148.333 24.7537 150.125 24.1916 152.225 24.1916C154.007 24.1916 155.694 24.5098 157.285 25.1462C158.897 25.7613 160.318 26.8643 161.548 28.4553L159.353 30.6507C158.504 29.4416 157.444 28.5401 156.171 27.9462C154.898 27.3522 153.604 27.0553 152.289 27.0553C150.953 27.0553 149.882 27.331 149.075 27.8825C148.269 28.4128 147.866 29.3143 147.866 30.5871C147.866 31.7113 148.301 32.6022 149.171 33.2598C150.062 33.8962 151.801 34.5856 154.389 35.328C157.316 36.1765 159.31 37.1098 160.371 38.128C161.453 39.125 161.994 40.578 161.994 42.4871C161.994 44.9265 161.124 46.7825 159.385 48.0553C157.645 49.328 155.672 49.9643 153.466 49.9643ZM165.983 49.7734V24.3189H182.529V27.1825H169.165V34.5007H180.938V37.3643H169.165V46.9098H182.529V49.7734H165.983Z" fill="white"/>
<defs>
<filter id="filter0_d_1366_132" x="0" y="0" width="264.35" height="85.5547" filterUnits="userSpaceOnUse" color-interpolation-filters="sRGB">
<feFlood flood-opacity="0" result="BackgroundImageFix"/>
<feColorMatrix in="SourceAlpha" type="matrix" values="0 0 0 0 0 0 0 0 0 0 0 0 0 0 0 0 0 0 127 0" result="hardAlpha"/>
<feOffset dy="4"/>
<feGaussianBlur stdDeviation="2"/>
<feComposite in2="hardAlpha" operator="out"/>
<feColorMatrix type="matrix" values="0 0 0 0 0 0 0 0 0 0 0 0 0 0 0 0 0 0 0.25 0"/>
<feBlend mode="normal" in2="BackgroundImageFix" result="effect1_dropShadow_1366_132"/>
<feBlend mode="normal" in="SourceGraphic" in2="effect1_dropShadow_1366_132" result="shape"/>
</filter>
</defs>
</svg>
