<svg width="265" height="86" viewBox="0 0 265 86" fill="none" xmlns="http://www.w3.org/2000/svg">
<g filter="url(#filter0_d_1360_117)">
<ellipse cx="132.175" cy="38.7759" rx="128.175" ry="38.7759" fill="#141497"/>
<path d="M132.175 0.5C167.534 0.5 199.527 4.83669 222.663 11.8359C234.234 15.3365 243.563 19.4943 249.986 24.0889C256.422 28.6923 259.85 33.663 259.85 38.7764C259.849 43.8895 256.422 48.8596 249.986 53.4629C243.563 58.0575 234.234 62.2152 222.663 65.7158C199.527 72.7151 167.534 77.0518 132.175 77.0518C96.8153 77.0518 64.8228 72.7151 41.6865 65.7158C30.1152 62.2152 20.7871 58.0575 14.3633 53.4629C7.92739 48.8596 4.50021 43.8895 4.5 38.7764C4.5 33.663 7.92719 28.6923 14.3633 24.0889C20.7871 19.4943 30.1152 15.3365 41.6865 11.8359C64.8228 4.83669 96.8153 0.5 132.175 0.5Z" stroke="white"/>
</g>
<path d="M79.0576 55.8507C75.9182 56.5295 73.5 56.3704 71.8031 55.3734C70.1273 54.3977 69.2576 52.6371 69.194 50.0916C66.4788 50.028 64.4212 49.2219 63.0212 47.6734C61.6212 46.125 60.9212 43.8871 60.9212 40.9598V33.2598C60.9212 30.2265 61.6424 27.925 63.0849 26.3553C64.5485 24.7856 66.7015 24.0007 69.544 24.0007C72.3652 24.0007 74.497 24.7856 75.9394 26.3553C77.3818 27.925 78.1031 30.2265 78.1031 33.2598V40.9598C78.1031 43.3992 77.6152 45.3613 76.6394 46.8462C75.6849 48.331 74.2637 49.3068 72.3758 49.7734C72.4182 51.2795 72.9379 52.2871 73.9349 52.7962C74.9318 53.3265 76.4803 53.3901 78.5803 52.9871L79.0576 55.8507ZM69.5121 46.9098C71.4637 46.9098 72.8531 46.4537 73.6803 45.5416C74.5076 44.6295 74.9212 43.1022 74.9212 40.9598V33.2598C74.9212 31.075 74.5076 29.5159 73.6803 28.5825C72.8531 27.6492 71.4637 27.1825 69.5121 27.1825C67.5606 27.1825 66.1712 27.6492 65.344 28.5825C64.5167 29.5159 64.1031 31.075 64.1031 33.2598V40.9598C64.1031 43.1022 64.5167 44.6295 65.344 45.5416C66.1712 46.4537 67.5606 46.9098 69.5121 46.9098ZM85.6246 37.1098H91.9882C93.7064 37.1098 94.9261 36.8022 95.6473 36.1871C96.3897 35.5507 96.7609 34.4901 96.7609 33.0053V31.0325C96.7609 29.6325 96.3897 28.6462 95.6473 28.0734C94.9261 27.4795 93.7064 27.1825 91.9882 27.1825H85.6246V37.1098ZM85.6246 49.7734H82.4428V24.3189H92.02C94.6715 24.3189 96.6549 24.881 97.97 26.0053C99.2852 27.1083 99.9428 28.784 99.9428 31.0325V33.0053C99.9428 35.0416 99.4231 36.6325 98.3837 37.778C97.3655 38.9234 95.8064 39.6022 93.7064 39.8143L100.229 49.7734H96.6018L90.1428 39.9098H85.6246V49.7734ZM132.613 50.0916C129.834 50.0916 127.734 49.4871 126.313 48.278C124.913 47.0477 124.213 45.2446 124.213 42.8689V37.7143C124.213 35.2962 124.913 33.4719 126.313 32.2416C127.734 30.9901 129.824 30.3643 132.581 30.3643C135.042 30.3643 136.93 30.9265 138.245 32.0507C139.581 33.1537 140.324 34.7765 140.472 36.9189L137.354 37.1098C137.269 35.7946 136.834 34.8189 136.049 34.1825C135.265 33.5462 134.098 33.228 132.549 33.228C130.81 33.228 129.516 33.5992 128.668 34.3416C127.819 35.0628 127.395 36.1871 127.395 37.7143V42.8689C127.395 44.3325 127.819 45.425 128.668 46.1462C129.537 46.8674 130.852 47.228 132.613 47.228C134.14 47.228 135.296 46.9628 136.081 46.4325C136.866 45.881 137.29 45.0643 137.354 43.9825L140.472 44.1734C140.324 46.125 139.592 47.5992 138.277 48.5962C136.962 49.5931 135.074 50.0916 132.613 50.0916ZM153.053 50.0916C150.486 50.0916 148.513 49.4765 147.135 48.2462C145.777 46.9946 145.098 45.2022 145.098 42.8689V37.7143C145.098 35.3598 145.788 33.5462 147.166 32.2734C148.545 31.0007 150.518 30.3643 153.085 30.3643C155.63 30.3643 157.582 31.0007 158.939 32.2734C160.318 33.5462 161.007 35.3598 161.007 37.7143V42.8689C161.007 45.2022 160.318 46.9946 158.939 48.2462C157.582 49.4765 155.619 50.0916 153.053 50.0916ZM153.053 47.228C154.665 47.228 155.863 46.8674 156.648 46.1462C157.433 45.425 157.825 44.3325 157.825 42.8689V37.7143C157.825 36.1871 157.433 35.0628 156.648 34.3416C155.863 33.5992 154.665 33.228 153.053 33.228C151.441 33.228 150.242 33.5992 149.457 34.3416C148.672 35.0628 148.28 36.1871 148.28 37.7143V42.8689C148.28 44.3325 148.672 45.425 149.457 46.1462C150.242 46.8674 151.441 47.228 153.053 47.228ZM172.983 47.0689C174.023 47.0689 175.009 46.7931 175.942 46.2416C176.876 45.6901 177.799 44.8522 178.711 43.728V34.3734C178.053 33.9704 177.353 33.6734 176.611 33.4825C175.868 33.2704 175.073 33.1643 174.224 33.1643C172.506 33.1643 171.233 33.5462 170.406 34.3098C169.579 35.0522 169.165 36.1871 169.165 37.7143V42.8371C169.165 44.2583 169.483 45.3189 170.12 46.0189C170.756 46.7189 171.711 47.0689 172.983 47.0689ZM177.756 46.5916C177.205 47.6946 176.441 48.5537 175.465 49.1689C174.489 49.784 173.397 50.0916 172.188 50.0916C170.215 50.0916 168.688 49.4553 167.606 48.1825C166.524 46.9098 165.983 45.128 165.983 42.8371V37.6507C165.983 35.3386 166.705 33.5462 168.147 32.2734C169.589 31.0007 171.605 30.3643 174.192 30.3643C174.935 30.3643 175.699 30.4492 176.483 30.6189C177.268 30.7674 178.011 30.9795 178.711 31.2553V24.3189H181.892V49.7734H178.711V46.5916H177.756ZM202.841 45.5734C202.269 47.1643 201.399 48.3204 200.232 49.0416C199.065 49.7416 197.273 50.0916 194.855 50.0916C192.331 50.0916 190.369 49.4871 188.969 48.278C187.569 47.0477 186.869 45.234 186.869 42.8371V37.7143C186.869 35.2537 187.6 33.4189 189.064 32.2098C190.549 30.9795 192.479 30.3643 194.855 30.3643C197.252 30.3643 199.172 30.9901 200.614 32.2416C202.056 33.4719 202.778 35.3704 202.778 37.9371V40.8643H190.05V42.8689C190.05 44.4598 190.443 45.6159 191.228 46.3371C192.034 47.0371 193.232 47.3871 194.823 47.3871C196.35 47.3871 197.464 47.175 198.164 46.7507C198.864 46.3265 199.394 45.6371 199.755 44.6825L202.841 45.5734ZM190.05 37.7143V38.478H199.596V38.0007C199.596 36.2825 199.193 35.031 198.387 34.2462C197.602 33.4613 196.414 33.0689 194.823 33.0689C193.232 33.0689 192.034 33.4507 191.228 34.2143C190.443 34.9568 190.05 36.1234 190.05 37.7143Z" fill="white"/>
<defs>
<filter id="filter0_d_1360_117" x="0" y="0" width="264.35" height="85.5547" filterUnits="userSpaceOnUse" color-interpolation-filters="sRGB">
<feFlood flood-opacity="0" result="BackgroundImageFix"/>
<feColorMatrix in="SourceAlpha" type="matrix" values="0 0 0 0 0 0 0 0 0 0 0 0 0 0 0 0 0 0 127 0" result="hardAlpha"/>
<feOffset dy="4"/>
<feGaussianBlur stdDeviation="2"/>
<feComposite in2="hardAlpha" operator="out"/>
<feColorMatrix type="matrix" values="0 0 0 0 0 0 0 0 0 0 0 0 0 0 0 0 0 0 0.25 0"/>
<feBlend mode="normal" in2="BackgroundImageFix" result="effect1_dropShadow_1360_117"/>
<feBlend mode="normal" in="SourceGraphic" in2="effect1_dropShadow_1360_117" result="shape"/>
</filter>
</defs>
</svg>
