<svg width="405" height="272" viewBox="0 0 405 272" fill="none" xmlns="http://www.w3.org/2000/svg">
<g filter="url(#filter0_d_1367_135)">
<path d="M55.8552 263.032L64.9603 185.447L98.2114 197.395L55.8552 263.032Z" fill="white"/>
<path d="M65.3838 186.131L97.4499 197.653L56.6032 260.952L65.3838 186.131Z" stroke="black"/>
</g>
<g filter="url(#filter1_d_1367_135)">
<ellipse cx="202.04" cy="111.285" rx="198.04" ry="111.285" fill="white"/>
<path d="M202.04 0.5C256.658 0.5 306.08 12.9411 341.83 33.0303C377.596 53.1284 399.58 80.8157 399.58 111.285C399.58 141.755 377.596 169.442 341.83 189.54C306.08 209.629 256.658 222.07 202.04 222.07C147.423 222.07 98.0004 209.629 62.25 189.54C26.4838 169.442 4.5 141.755 4.5 111.285C4.5 80.8157 26.4838 53.1284 62.25 33.0303C98.0004 12.9411 147.423 0.5 202.04 0.5Z" stroke="#202020"/>
</g>
<path d="M100.993 76.1094V50.2912H91.9022V47.0185H113.72V50.2912H104.629V76.1094H100.993ZM119.189 76.1094V47.0185H122.825V57.9276H123.916C124.45 56.6912 125.286 55.7215 126.425 55.0185C127.565 54.2912 128.862 53.9276 130.316 53.9276C132.498 53.9276 134.219 54.5942 135.48 55.9276C136.741 57.2609 137.371 59.067 137.371 61.3457V76.1094H133.735V62.1094C133.735 60.5821 133.359 59.4185 132.607 58.6185C131.88 57.7942 130.825 57.3821 129.444 57.3821C128.353 57.3821 127.238 57.7094 126.098 58.3639C124.983 59.0185 123.892 59.9639 122.825 61.2003V76.1094H119.189ZM162.912 71.3094C162.258 73.1276 161.264 74.4488 159.931 75.273C158.597 76.073 156.549 76.473 153.785 76.473C150.9 76.473 148.658 75.7821 147.058 74.4003C145.458 72.9942 144.658 70.9215 144.658 68.1821V62.3276C144.658 59.5154 145.494 57.4185 147.167 56.0366C148.864 54.6306 151.07 53.9276 153.785 53.9276C156.525 53.9276 158.718 54.6427 160.367 56.073C162.015 57.4791 162.84 59.6488 162.84 62.5821V65.9276H148.294V68.2185C148.294 70.0366 148.743 71.3579 149.64 72.1821C150.561 72.9821 151.931 73.3821 153.749 73.3821C155.494 73.3821 156.767 73.1397 157.567 72.6548C158.367 72.17 158.973 71.3821 159.385 70.2912L162.912 71.3094ZM148.294 62.3276V63.2003H159.203V62.6548C159.203 60.6912 158.743 59.2609 157.821 58.3639C156.925 57.467 155.567 57.0185 153.749 57.0185C151.931 57.0185 150.561 57.4548 149.64 58.3276C148.743 59.176 148.294 60.5094 148.294 62.3276ZM172.745 83.6003C172.163 83.6003 171.593 83.5639 171.036 83.4912C170.478 83.4185 169.908 83.3215 169.327 83.2003L169.945 79.9639C170.575 80.1094 171.157 80.2185 171.69 80.2912C172.248 80.3639 172.757 80.4003 173.218 80.4003C174.333 80.4003 175.314 80.0851 176.163 79.4548C177.036 78.8245 177.702 77.8185 178.163 76.4366L178.272 76.1094H176.927L169.181 54.2912H173.145L179.29 73.0548L185.399 54.2912H189.218L181.218 76.8366C180.393 79.1882 179.266 80.8973 177.836 81.9639C176.43 83.0548 174.733 83.6003 172.745 83.6003ZM227.537 73.3457C228.797 73.3457 229.961 73.1276 231.028 72.6912C232.094 72.2306 233.016 71.4427 233.791 70.3276V66.8366H227.246C226.203 66.8366 225.331 67.0791 224.628 67.5639C223.949 68.0245 223.61 68.8488 223.61 70.0366C223.61 71.0791 223.9 71.8912 224.482 72.473C225.088 73.0548 226.107 73.3457 227.537 73.3457ZM227.064 76.473C225.222 76.473 223.573 75.9882 222.119 75.0185C220.688 74.0245 219.973 72.4366 219.973 70.2548C219.973 68.3397 220.591 66.8366 221.828 65.7457C223.088 64.6548 224.555 64.1094 226.228 64.1094H233.791V60.9821C233.791 59.8185 233.403 58.8973 232.628 58.2185C231.852 57.5397 230.676 57.2003 229.1 57.2003C227.5 57.2003 226.3 57.4427 225.5 57.9276C224.725 58.3882 224.107 59.4306 223.646 61.0548L220.446 60.1821C220.858 58.1215 221.779 56.57 223.21 55.5276C224.664 54.4609 226.603 53.9276 229.028 53.9276C231.428 53.9276 233.428 54.473 235.028 55.5639C236.628 56.6306 237.428 58.2912 237.428 60.5457V70.2912C237.428 71.6003 237.791 72.4245 238.519 72.7639C239.246 73.0791 240.337 73.1154 241.791 72.873V76.2185C240.288 76.4366 238.87 76.3397 237.537 75.9276C236.228 75.4912 235.513 74.3397 235.391 72.473H234.664C233.985 73.5882 232.967 74.5336 231.61 75.3094C230.252 76.0851 228.737 76.473 227.064 76.473ZM248.351 76.1094V54.2912H251.987V57.9276H253.078C253.587 56.5457 254.363 55.5397 255.406 54.9094C256.448 54.2548 257.709 53.9276 259.187 53.9276C260.812 53.9276 262.169 54.473 263.26 55.5639C264.351 56.6306 264.896 58.1457 264.896 60.1094V63.3821H261.442V61.4185C261.442 60.0366 261.127 59.0185 260.496 58.3639C259.89 57.7094 258.957 57.3821 257.696 57.3821C256.557 57.3821 255.515 57.6609 254.569 58.2185C253.648 58.776 252.787 59.6488 251.987 60.8366V76.1094H248.351ZM290.256 71.3094C289.602 73.1276 288.608 74.4488 287.274 75.273C285.941 76.073 283.893 76.473 281.129 76.473C278.244 76.473 276.002 75.7821 274.402 74.4003C272.802 72.9942 272.002 70.9215 272.002 68.1821V62.3276C272.002 59.5154 272.838 57.4185 274.511 56.0366C276.208 54.6306 278.414 53.9276 281.129 53.9276C283.868 53.9276 286.062 54.6427 287.711 56.073C289.359 57.4791 290.183 59.6488 290.183 62.5821V65.9276H275.638V68.2185C275.638 70.0366 276.086 71.3579 276.983 72.1821C277.905 72.9821 279.274 73.3821 281.093 73.3821C282.838 73.3821 284.111 73.1397 284.911 72.6548C285.711 72.17 286.317 71.3821 286.729 70.2912L290.256 71.3094ZM275.638 62.3276V63.2003H286.547V62.6548C286.547 60.6912 286.086 59.2609 285.165 58.3639C284.268 57.467 282.911 57.0185 281.093 57.0185C279.274 57.0185 277.905 57.4548 276.983 58.3276C276.086 59.176 275.638 60.5094 275.638 62.3276ZM95.6113 108.473V124.109H92.2658V102.291H95.6113V105.2H96.3385C96.7991 104.182 97.4052 103.382 98.1567 102.8C98.9082 102.218 99.6961 101.928 100.52 101.928C101.466 101.928 102.254 102.218 102.884 102.8C103.539 103.358 103.987 104.158 104.229 105.2H105.029C105.49 104.182 106.108 103.382 106.884 102.8C107.684 102.218 108.532 101.928 109.429 101.928C110.642 101.928 111.599 102.425 112.302 103.418C113.005 104.388 113.357 105.709 113.357 107.382V124.109H110.011V107.964C110.011 106.873 109.866 106.049 109.575 105.491C109.284 104.934 108.86 104.655 108.302 104.655C107.842 104.655 107.26 104.994 106.557 105.673C105.878 106.352 105.187 107.285 104.484 108.473V124.109H101.139V107.964C101.139 106.873 100.981 106.049 100.666 105.491C100.375 104.934 99.9507 104.655 99.3931 104.655C98.9082 104.655 98.3385 104.982 97.684 105.637C97.0537 106.291 96.3628 107.237 95.6113 108.473ZM125.662 121.346C126.922 121.346 128.086 121.128 129.153 120.691C130.219 120.231 131.141 119.443 131.916 118.328V114.837H125.371C124.328 114.837 123.456 115.079 122.753 115.564C122.074 116.025 121.735 116.849 121.735 118.037C121.735 119.079 122.025 119.891 122.607 120.473C123.213 121.055 124.232 121.346 125.662 121.346ZM125.189 124.473C123.347 124.473 121.698 123.988 120.244 123.018C118.813 122.025 118.098 120.437 118.098 118.255C118.098 116.34 118.716 114.837 119.953 113.746C121.213 112.655 122.68 112.109 124.353 112.109H131.916V108.982C131.916 107.818 131.528 106.897 130.753 106.218C129.977 105.54 128.801 105.2 127.225 105.2C125.625 105.2 124.425 105.443 123.625 105.928C122.85 106.388 122.232 107.431 121.771 109.055L118.571 108.182C118.983 106.121 119.904 104.57 121.335 103.528C122.789 102.461 124.728 101.928 127.153 101.928C129.553 101.928 131.553 102.473 133.153 103.564C134.753 104.631 135.553 106.291 135.553 108.546V118.291C135.553 119.6 135.916 120.425 136.644 120.764C137.371 121.079 138.462 121.115 139.916 120.873V124.218C138.413 124.437 136.995 124.34 135.662 123.928C134.353 123.491 133.638 122.34 133.516 120.473H132.789C132.11 121.588 131.092 122.534 129.735 123.309C128.377 124.085 126.862 124.473 125.189 124.473ZM150.112 114.182V124.109H146.476V95.0185H150.112V111.128H151.967L158.949 102.291H163.385L154.84 112.437L163.276 124.109H159.131L151.967 114.182H150.112ZM170.127 124.109V120.837H177.399V105.564H170.127V102.291H181.036V120.837H188.308V124.109H170.127ZM179.218 98.2912C178.296 98.2912 177.545 98.1457 176.963 97.8548C176.405 97.5639 176.127 97.0185 176.127 96.2185V95.9639C176.127 95.1397 176.405 94.5821 176.963 94.2912C177.545 93.976 178.296 93.8185 179.218 93.8185C180.139 93.8185 180.878 93.976 181.436 94.2912C182.018 94.5821 182.308 95.1397 182.308 95.9639V96.2185C182.308 97.0185 182.018 97.5639 181.436 97.8548C180.854 98.1457 180.114 98.2912 179.218 98.2912ZM195.595 124.109V102.291H199.232V105.928H200.323C200.856 104.691 201.692 103.721 202.832 103.018C203.971 102.291 205.268 101.928 206.723 101.928C208.904 101.928 210.626 102.594 211.886 103.928C213.147 105.261 213.777 107.079 213.777 109.382V124.109H210.141V110.109C210.141 108.582 209.765 107.418 209.014 106.618C208.286 105.794 207.232 105.382 205.85 105.382C204.759 105.382 203.644 105.709 202.504 106.364C201.389 107.018 200.298 107.964 199.232 109.2V124.109H195.595ZM241.064 125.855C241.064 127.818 240.337 129.285 238.882 130.255C237.452 131.249 235.694 131.746 233.61 131.746H226.773C224.591 131.746 222.785 131.309 221.355 130.437C219.949 129.564 219.246 128.218 219.246 126.4C219.246 125.237 219.549 124.315 220.155 123.637C220.785 122.934 221.694 122.534 222.882 122.437V121.673C222.034 121.528 221.331 121.176 220.773 120.618C220.24 120.061 219.973 119.2 219.973 118.037C219.973 116.994 220.3 116.061 220.955 115.237C221.61 114.388 222.713 113.903 224.264 113.782V113.091C223.076 112.703 222.276 112.121 221.864 111.346C221.452 110.546 221.246 109.782 221.246 109.055V108.073C221.246 106.4 221.961 105.018 223.391 103.928C224.822 102.837 226.834 102.291 229.428 102.291H240.155V105.564L234.519 104.728V105.382C235.488 105.649 236.216 106.158 236.7 106.909C237.21 107.661 237.464 108.412 237.464 109.164V110.109C237.464 111.782 236.822 113.14 235.537 114.182C234.252 115.2 232.167 115.709 229.282 115.709H224.882C224.228 115.709 223.731 115.879 223.391 116.218C223.052 116.534 222.882 117.079 222.882 117.855C222.882 118.606 223.113 119.176 223.573 119.564C224.058 119.928 224.773 120.109 225.719 120.109H233.973C236.01 120.109 237.694 120.558 239.028 121.455C240.385 122.352 241.064 123.818 241.064 125.855ZM229.428 112.946C230.907 112.946 232.034 112.679 232.81 112.146C233.585 111.612 233.973 110.776 233.973 109.637V108.473C233.973 107.334 233.585 106.509 232.81 106C232.034 105.467 230.907 105.2 229.428 105.2C227.949 105.2 226.822 105.467 226.046 106C225.27 106.509 224.882 107.334 224.882 108.473V109.637C224.882 110.776 225.27 111.612 226.046 112.146C226.822 112.679 227.949 112.946 229.428 112.946ZM226.7 128.837H234.082C235.173 128.837 236.058 128.631 236.737 128.218C237.416 127.806 237.755 127.091 237.755 126.073C237.755 125.103 237.44 124.412 236.81 124C236.203 123.588 235.416 123.382 234.446 123.382H222.882V125.855C222.882 126.849 223.21 127.588 223.864 128.073C224.519 128.582 225.464 128.837 226.7 128.837ZM95.6113 156.473V172.109H92.2658V150.291H95.6113V153.2H96.3385C96.7991 152.182 97.4052 151.382 98.1567 150.8C98.9082 150.218 99.6961 149.928 100.52 149.928C101.466 149.928 102.254 150.218 102.884 150.8C103.539 151.358 103.987 152.158 104.229 153.2H105.029C105.49 152.182 106.108 151.382 106.884 150.8C107.684 150.218 108.532 149.928 109.429 149.928C110.642 149.928 111.599 150.425 112.302 151.418C113.005 152.388 113.357 153.709 113.357 155.382V172.109H110.011V155.964C110.011 154.873 109.866 154.049 109.575 153.491C109.284 152.934 108.86 152.655 108.302 152.655C107.842 152.655 107.26 152.994 106.557 153.673C105.878 154.352 105.187 155.285 104.484 156.473V172.109H101.139V155.964C101.139 154.873 100.981 154.049 100.666 153.491C100.375 152.934 99.9507 152.655 99.3931 152.655C98.9082 152.655 98.3385 152.982 97.684 153.637C97.0537 154.291 96.3628 155.237 95.6113 156.473ZM119.189 172.109V168.837H126.462V153.564H119.189V150.291H130.098V168.837H137.371V172.109H119.189ZM128.28 146.291C127.359 146.291 126.607 146.146 126.025 145.855C125.468 145.564 125.189 145.018 125.189 144.218V143.964C125.189 143.14 125.468 142.582 126.025 142.291C126.607 141.976 127.359 141.818 128.28 141.818C129.201 141.818 129.941 141.976 130.498 142.291C131.08 142.582 131.371 143.14 131.371 143.964V144.218C131.371 145.018 131.08 145.564 130.498 145.855C129.916 146.146 129.177 146.291 128.28 146.291ZM154.04 172.473C152.197 172.473 150.415 172.206 148.694 171.673C146.973 171.115 145.385 170.267 143.931 169.128L145.567 166.255C146.755 167.225 148.076 167.964 149.531 168.473C151.009 168.958 152.512 169.2 154.04 169.2C155.3 169.2 156.5 169.006 157.64 168.618C158.803 168.231 159.385 167.406 159.385 166.146C159.385 165.103 158.912 164.364 157.967 163.928C157.021 163.491 155.288 163.115 152.767 162.8C150.1 162.485 148.076 161.867 146.694 160.946C145.337 160 144.658 158.521 144.658 156.509C144.658 154.328 145.482 152.691 147.131 151.6C148.779 150.485 150.694 149.928 152.876 149.928C154.597 149.928 156.246 150.218 157.821 150.8C159.421 151.382 160.9 152.206 162.258 153.273L160.621 156.146C159.506 155.249 158.294 154.534 156.985 154C155.676 153.467 154.306 153.2 152.876 153.2C151.712 153.2 150.646 153.418 149.676 153.855C148.731 154.291 148.258 155.091 148.258 156.255C148.258 157.249 148.694 157.976 149.567 158.437C150.464 158.873 152.173 159.249 154.694 159.564C157.458 159.879 159.531 160.558 160.912 161.6C162.294 162.618 162.985 164.049 162.985 165.891C162.985 168.17 162.064 169.843 160.221 170.909C158.379 171.952 156.318 172.473 154.04 172.473ZM182.818 172.437C180.418 172.437 178.551 171.843 177.218 170.655C175.884 169.467 175.218 167.649 175.218 165.2V153.564H169.036V150.291H175.218V143.018H178.854V150.291H188.308V153.564H178.854V164.873C178.854 166.279 179.205 167.321 179.908 168C180.611 168.679 181.654 169.018 183.036 169.018C183.957 169.018 184.818 168.958 185.618 168.837C186.418 168.691 187.181 168.509 187.908 168.291L188.636 171.6C187.811 171.843 186.927 172.037 185.981 172.182C185.06 172.352 184.005 172.437 182.818 172.437ZM202.068 169.346C203.329 169.346 204.492 169.128 205.559 168.691C206.626 168.231 207.547 167.443 208.323 166.328V162.837H201.777C200.735 162.837 199.862 163.079 199.159 163.564C198.48 164.025 198.141 164.849 198.141 166.037C198.141 167.079 198.432 167.891 199.014 168.473C199.62 169.055 200.638 169.346 202.068 169.346ZM201.595 172.473C199.753 172.473 198.104 171.988 196.65 171.018C195.22 170.025 194.504 168.437 194.504 166.255C194.504 164.34 195.123 162.837 196.359 161.746C197.62 160.655 199.086 160.109 200.759 160.109H208.323V156.982C208.323 155.818 207.935 154.897 207.159 154.218C206.383 153.54 205.207 153.2 203.632 153.2C202.032 153.2 200.832 153.443 200.032 153.928C199.256 154.388 198.638 155.431 198.177 157.055L194.977 156.182C195.389 154.121 196.31 152.57 197.741 151.528C199.195 150.461 201.135 149.928 203.559 149.928C205.959 149.928 207.959 150.473 209.559 151.564C211.159 152.631 211.959 154.291 211.959 156.546V166.291C211.959 167.6 212.323 168.425 213.05 168.764C213.777 169.079 214.868 169.115 216.323 168.873V172.218C214.82 172.437 213.401 172.34 212.068 171.928C210.759 171.491 210.044 170.34 209.923 168.473H209.195C208.517 169.588 207.498 170.534 206.141 171.309C204.783 172.085 203.268 172.473 201.595 172.473ZM226.519 162.182V172.109H222.882V143.018H226.519V159.128H228.373L235.355 150.291H239.791L231.246 160.437L239.682 172.109H235.537L228.373 162.182H226.519ZM264.787 167.309C264.133 169.128 263.139 170.449 261.806 171.273C260.472 172.073 258.424 172.473 255.66 172.473C252.775 172.473 250.533 171.782 248.933 170.4C247.333 168.994 246.533 166.921 246.533 164.182V158.328C246.533 155.515 247.369 153.418 249.042 152.037C250.739 150.631 252.945 149.928 255.66 149.928C258.4 149.928 260.593 150.643 262.242 152.073C263.89 153.479 264.715 155.649 264.715 158.582V161.928H250.169V164.218C250.169 166.037 250.618 167.358 251.515 168.182C252.436 168.982 253.806 169.382 255.624 169.382C257.369 169.382 258.642 169.14 259.442 168.655C260.242 168.17 260.848 167.382 261.26 166.291L264.787 167.309ZM250.169 158.328V159.2H261.078V158.655C261.078 156.691 260.618 155.261 259.696 154.364C258.8 153.467 257.442 153.018 255.624 153.018C253.806 153.018 252.436 153.455 251.515 154.328C250.618 155.176 250.169 156.509 250.169 158.328ZM281.383 172.473C279.541 172.473 277.759 172.206 276.038 171.673C274.317 171.115 272.729 170.267 271.274 169.128L272.911 166.255C274.099 167.225 275.42 167.964 276.874 168.473C278.353 168.958 279.856 169.2 281.383 169.2C282.644 169.2 283.844 169.006 284.983 168.618C286.147 168.231 286.729 167.406 286.729 166.146C286.729 165.103 286.256 164.364 285.311 163.928C284.365 163.491 282.632 163.115 280.111 162.8C277.444 162.485 275.42 161.867 274.038 160.946C272.68 160 272.002 158.521 272.002 156.509C272.002 154.328 272.826 152.691 274.474 151.6C276.123 150.485 278.038 149.928 280.22 149.928C281.941 149.928 283.589 150.218 285.165 150.8C286.765 151.382 288.244 152.206 289.602 153.273L287.965 156.146C286.85 155.249 285.638 154.534 284.329 154C283.02 153.467 281.65 153.2 280.22 153.2C279.056 153.2 277.989 153.418 277.02 153.855C276.074 154.291 275.602 155.091 275.602 156.255C275.602 157.249 276.038 157.976 276.911 158.437C277.808 158.873 279.517 159.249 282.038 159.564C284.802 159.879 286.874 160.558 288.256 161.6C289.638 162.618 290.329 164.049 290.329 165.891C290.329 168.17 289.408 169.843 287.565 170.909C285.723 171.952 283.662 172.473 281.383 172.473ZM306.598 172.473C305.385 172.473 304.404 172.206 303.652 171.673C302.901 171.115 302.525 170.243 302.525 169.055V168.037C302.525 166.849 302.901 165.976 303.652 165.418C304.404 164.837 305.385 164.546 306.598 164.546C307.81 164.546 308.779 164.837 309.507 165.418C310.258 165.976 310.634 166.849 310.634 168.037V169.055C310.634 170.243 310.258 171.115 309.507 171.673C308.755 172.206 307.785 172.473 306.598 172.473Z" fill="black"/>
<defs>
<filter id="filter0_d_1367_135" x="51.8555" y="185.445" width="50.3555" height="85.5859" filterUnits="userSpaceOnUse" color-interpolation-filters="sRGB">
<feFlood flood-opacity="0" result="BackgroundImageFix"/>
<feColorMatrix in="SourceAlpha" type="matrix" values="0 0 0 0 0 0 0 0 0 0 0 0 0 0 0 0 0 0 127 0" result="hardAlpha"/>
<feOffset dy="4"/>
<feGaussianBlur stdDeviation="2"/>
<feComposite in2="hardAlpha" operator="out"/>
<feColorMatrix type="matrix" values="0 0 0 0 0 0 0 0 0 0 0 0 0 0 0 0 0 0 0.25 0"/>
<feBlend mode="normal" in2="BackgroundImageFix" result="effect1_dropShadow_1367_135"/>
<feBlend mode="normal" in="SourceGraphic" in2="effect1_dropShadow_1367_135" result="shape"/>
</filter>
<filter id="filter1_d_1367_135" x="0" y="0" width="404.08" height="230.57" filterUnits="userSpaceOnUse" color-interpolation-filters="sRGB">
<feFlood flood-opacity="0" result="BackgroundImageFix"/>
<feColorMatrix in="SourceAlpha" type="matrix" values="0 0 0 0 0 0 0 0 0 0 0 0 0 0 0 0 0 0 127 0" result="hardAlpha"/>
<feOffset dy="4"/>
<feGaussianBlur stdDeviation="2"/>
<feComposite in2="hardAlpha" operator="out"/>
<feColorMatrix type="matrix" values="0 0 0 0 0 0 0 0 0 0 0 0 0 0 0 0 0 0 0.25 0"/>
<feBlend mode="normal" in2="BackgroundImageFix" result="effect1_dropShadow_1367_135"/>
<feBlend mode="normal" in="SourceGraphic" in2="effect1_dropShadow_1367_135" result="shape"/>
</filter>
</defs>
</svg>
