<svg width="737" height="501" viewBox="0 0 737 501" fill="none" xmlns="http://www.w3.org/2000/svg">
<g filter="url(#filter0_d_1373_6228)">
<path d="M88.8407 489.685L103.55 364.35L157.265 383.651L88.8407 489.685Z" fill="white"/>
<path d="M103.973 365.033L156.504 383.908L89.5886 487.603L103.973 365.033Z" stroke="black"/>
</g>
<g filter="url(#filter1_d_1373_6228)">
<ellipse cx="368.076" cy="217.691" rx="364.076" ry="217.691" fill="white"/>
<path d="M368.076 0.5C468.538 0.5 559.466 24.8488 625.261 64.1895C691.066 103.536 731.652 157.823 731.652 217.691C731.652 277.56 691.066 331.847 625.261 371.193C559.466 410.534 468.538 434.883 368.076 434.883C267.614 434.883 176.686 410.534 110.892 371.193C45.0867 331.847 4.5 277.56 4.5 217.691C4.5 157.823 45.0867 103.536 110.892 64.1895C176.686 24.8488 267.614 0.5 368.076 0.5Z" stroke="#202020"/>
</g>
<defs>
<filter id="filter0_d_1373_6228" x="84.8398" y="364.352" width="76.4258" height="133.336" filterUnits="userSpaceOnUse" color-interpolation-filters="sRGB">
<feFlood flood-opacity="0" result="BackgroundImageFix"/>
<feColorMatrix in="SourceAlpha" type="matrix" values="0 0 0 0 0 0 0 0 0 0 0 0 0 0 0 0 0 0 127 0" result="hardAlpha"/>
<feOffset dy="4"/>
<feGaussianBlur stdDeviation="2"/>
<feComposite in2="hardAlpha" operator="out"/>
<feColorMatrix type="matrix" values="0 0 0 0 0 0 0 0 0 0 0 0 0 0 0 0 0 0 0.25 0"/>
<feBlend mode="normal" in2="BackgroundImageFix" result="effect1_dropShadow_1373_6228"/>
<feBlend mode="normal" in="SourceGraphic" in2="effect1_dropShadow_1373_6228" result="shape"/>
</filter>
<filter id="filter1_d_1373_6228" x="0" y="0" width="736.152" height="443.383" filterUnits="userSpaceOnUse" color-interpolation-filters="sRGB">
<feFlood flood-opacity="0" result="BackgroundImageFix"/>
<feColorMatrix in="SourceAlpha" type="matrix" values="0 0 0 0 0 0 0 0 0 0 0 0 0 0 0 0 0 0 127 0" result="hardAlpha"/>
<feOffset dy="4"/>
<feGaussianBlur stdDeviation="2"/>
<feComposite in2="hardAlpha" operator="out"/>
<feColorMatrix type="matrix" values="0 0 0 0 0 0 0 0 0 0 0 0 0 0 0 0 0 0 0.25 0"/>
<feBlend mode="normal" in2="BackgroundImageFix" result="effect1_dropShadow_1373_6228"/>
<feBlend mode="normal" in="SourceGraphic" in2="effect1_dropShadow_1373_6228" result="shape"/>
</filter>
</defs>
</svg>
