<svg width="354" height="209" viewBox="0 0 354 209" fill="none" xmlns="http://www.w3.org/2000/svg">
<g filter="url(#filter0_d_1367_139)">
<path d="M303.705 200.751L294.6 123.166L261.349 135.114L303.705 200.751Z" fill="white"/>
<path d="M294.177 123.85L262.111 135.372L302.957 198.671L294.177 123.85Z" stroke="black"/>
</g>
<g filter="url(#filter1_d_1367_139)">
<ellipse cx="176.789" cy="76.504" rx="172.789" ry="76.504" fill="white"/>
<path d="M176.789 0.5C224.45 0.500042 267.576 9.05408 298.767 22.8643C314.363 29.7696 326.953 37.9795 335.638 47.0703C344.32 56.1586 349.077 66.1043 349.077 76.5039C349.077 86.9035 344.32 96.8492 335.638 105.938C326.953 115.028 314.363 123.238 298.767 130.144C267.576 143.954 224.45 152.508 176.789 152.508C129.128 152.508 86.0026 143.954 54.8115 130.144C39.2154 123.238 26.6248 115.028 17.9404 105.938C9.25844 96.8492 4.5 86.9036 4.5 76.5039C4.50003 66.1043 9.25847 56.1586 17.9404 47.0703C26.6248 37.9796 39.2155 29.7696 54.8115 22.8643C86.0026 9.05419 129.128 0.5 176.789 0.5Z" stroke="#202020"/>
</g>
<path d="M82.829 67.9766V42.1584H73.7381V38.8857H95.5563V42.1584H86.4654V67.9766H82.829ZM101.025 67.9766V38.8857H104.661V49.7947H105.752C106.286 48.5584 107.122 47.5887 108.261 46.8857C109.401 46.1584 110.698 45.7947 112.152 45.7947C114.334 45.7947 116.055 46.4614 117.316 47.7947C118.577 49.1281 119.207 50.9341 119.207 53.2129V67.9766H115.57V53.9766C115.57 52.4493 115.195 51.2857 114.443 50.4857C113.716 49.6614 112.661 49.2493 111.28 49.2493C110.189 49.2493 109.074 49.5766 107.934 50.2311C106.819 50.8857 105.728 51.8311 104.661 53.0675V67.9766H101.025ZM144.748 63.1766C144.094 64.9947 143.1 66.316 141.767 67.1402C140.433 67.9402 138.385 68.3402 135.621 68.3402C132.736 68.3402 130.494 67.6493 128.894 66.2675C127.294 64.8614 126.494 62.7887 126.494 60.0493V54.1947C126.494 51.3826 127.33 49.2857 129.003 47.9038C130.7 46.4978 132.906 45.7947 135.621 45.7947C138.36 45.7947 140.554 46.5099 142.203 47.9402C143.851 49.3463 144.676 51.516 144.676 54.4493V57.7947H130.13V60.0857C130.13 61.9038 130.579 63.225 131.476 64.0493C132.397 64.8493 133.767 65.2493 135.585 65.2493C137.33 65.2493 138.603 65.0069 139.403 64.522C140.203 64.0372 140.809 63.2493 141.221 62.1584L144.748 63.1766ZM130.13 54.1947V55.0675H141.039V54.522C141.039 52.5584 140.579 51.1281 139.657 50.2311C138.76 49.3341 137.403 48.8857 135.585 48.8857C133.767 48.8857 132.397 49.322 131.476 50.1947C130.579 51.0432 130.13 52.3766 130.13 54.1947ZM154.581 75.4675C153.999 75.4675 153.429 75.4311 152.872 75.3584C152.314 75.2857 151.744 75.1887 151.163 75.0675L151.781 71.8311C152.411 71.9766 152.993 72.0857 153.526 72.1584C154.084 72.2311 154.593 72.2675 155.053 72.2675C156.169 72.2675 157.15 71.9523 157.999 71.322C158.872 70.6917 159.538 69.6857 159.999 68.3038L160.108 67.9766H158.763L151.017 46.1584H154.981L161.126 64.922L167.235 46.1584H171.053L163.053 68.7038C162.229 71.0554 161.102 72.7644 159.672 73.8311C158.266 74.922 156.569 75.4675 154.581 75.4675ZM209.373 65.2129C210.633 65.2129 211.797 64.9947 212.864 64.5584C213.93 64.0978 214.852 63.3099 215.627 62.1947V58.7038H209.082C208.039 58.7038 207.167 58.9463 206.464 59.4311C205.785 59.8917 205.445 60.716 205.445 61.9038C205.445 62.9463 205.736 63.7584 206.318 64.3402C206.924 64.922 207.942 65.2129 209.373 65.2129ZM208.9 68.3402C207.058 68.3402 205.409 67.8554 203.955 66.8857C202.524 65.8917 201.809 64.3038 201.809 62.122C201.809 60.2069 202.427 58.7038 203.664 57.6129C204.924 56.522 206.391 55.9766 208.064 55.9766H215.627V52.8493C215.627 51.6857 215.239 50.7644 214.464 50.0857C213.688 49.4069 212.512 49.0675 210.936 49.0675C209.336 49.0675 208.136 49.3099 207.336 49.7947C206.561 50.2554 205.942 51.2978 205.482 52.922L202.282 52.0493C202.694 49.9887 203.615 48.4372 205.045 47.3947C206.5 46.3281 208.439 45.7947 210.864 45.7947C213.264 45.7947 215.264 46.3402 216.864 47.4311C218.464 48.4978 219.264 50.1584 219.264 52.4129V62.1584C219.264 63.4675 219.627 64.2917 220.355 64.6311C221.082 64.9463 222.173 64.9826 223.627 64.7402V68.0857C222.124 68.3038 220.706 68.2069 219.373 67.7947C218.064 67.3584 217.349 66.2069 217.227 64.3402H216.5C215.821 65.4554 214.803 66.4008 213.445 67.1766C212.088 67.9523 210.573 68.3402 208.9 68.3402ZM230.187 67.9766V46.1584H233.823V49.7947H234.914C235.423 48.4129 236.199 47.4069 237.242 46.7766C238.284 46.122 239.545 45.7947 241.023 45.7947C242.648 45.7947 244.005 46.3402 245.096 47.4311C246.187 48.4978 246.732 50.0129 246.732 51.9766V55.2493H243.278V53.2857C243.278 51.9038 242.963 50.8857 242.332 50.2311C241.726 49.5766 240.793 49.2493 239.532 49.2493C238.393 49.2493 237.351 49.5281 236.405 50.0857C235.484 50.6432 234.623 51.516 233.823 52.7038V67.9766H230.187ZM272.092 63.1766C271.438 64.9947 270.444 66.316 269.11 67.1402C267.777 67.9402 265.728 68.3402 262.965 68.3402C260.08 68.3402 257.838 67.6493 256.238 66.2675C254.638 64.8614 253.838 62.7887 253.838 60.0493V54.1947C253.838 51.3826 254.674 49.2857 256.347 47.9038C258.044 46.4978 260.25 45.7947 262.965 45.7947C265.704 45.7947 267.898 46.5099 269.547 47.9402C271.195 49.3463 272.019 51.516 272.019 54.4493V57.7947H257.474V60.0857C257.474 61.9038 257.922 63.225 258.819 64.0493C259.741 64.8493 261.11 65.2493 262.928 65.2493C264.674 65.2493 265.947 65.0069 266.747 64.522C267.547 64.0372 268.153 63.2493 268.565 62.1584L272.092 63.1766ZM257.474 54.1947V55.0675H268.383V54.522C268.383 52.5584 267.922 51.1281 267.001 50.2311C266.104 49.3341 264.747 48.8857 262.928 48.8857C261.11 48.8857 259.741 49.322 258.819 50.1947C257.922 51.0432 257.474 52.3766 257.474 54.1947ZM85.1563 116.34C81.9805 116.34 79.5805 115.649 77.9563 114.267C76.3563 112.861 75.5563 110.801 75.5563 108.086V102.195C75.5563 99.4311 76.3563 97.3463 77.9563 95.9402C79.5805 94.5099 81.9684 93.7947 85.1199 93.7947C87.932 93.7947 90.0896 94.4372 91.5926 95.722C93.1199 96.9826 93.9684 98.8372 94.1381 101.286L90.5745 101.504C90.4775 100.001 89.9805 98.8857 89.0836 98.1584C88.1866 97.4311 86.8533 97.0675 85.0836 97.0675C83.0957 97.0675 81.6169 97.4917 80.6472 98.3402C79.6775 99.1644 79.1926 100.449 79.1926 102.195V108.086C79.1926 109.758 79.6775 111.007 80.6472 111.831C81.6411 112.655 83.1442 113.067 85.1563 113.067C86.9017 113.067 88.223 112.764 89.1199 112.158C90.0169 111.528 90.5017 110.595 90.5745 109.358L94.1381 109.577C93.9684 111.807 93.132 113.492 91.629 114.631C90.126 115.771 87.9684 116.34 85.1563 116.34ZM108.08 116.34C105.97 116.34 104.261 115.661 102.952 114.304C101.667 112.922 101.025 111.116 101.025 108.886V94.1584H104.661V108.158C104.661 109.758 105.013 110.946 105.716 111.722C106.419 112.498 107.498 112.886 108.952 112.886C110.092 112.886 111.195 112.583 112.261 111.977C113.352 111.346 114.455 110.377 115.57 109.067V94.1584H119.207V115.977H115.57V112.34H114.48C113.97 113.528 113.122 114.498 111.934 115.249C110.77 115.977 109.486 116.34 108.08 116.34ZM139.185 116.304C136.785 116.304 134.918 115.71 133.585 114.522C132.251 113.334 131.585 111.516 131.585 109.067V97.4311H125.403V94.1584H131.585V86.8857H135.221V94.1584H144.676V97.4311H135.221V108.74C135.221 110.146 135.573 111.189 136.276 111.867C136.979 112.546 138.021 112.886 139.403 112.886C140.324 112.886 141.185 112.825 141.985 112.704C142.785 112.558 143.548 112.377 144.276 112.158L145.003 115.467C144.179 115.71 143.294 115.904 142.348 116.049C141.427 116.219 140.373 116.304 139.185 116.304ZM170.217 111.177C169.563 112.995 168.569 114.316 167.235 115.14C165.902 115.94 163.853 116.34 161.09 116.34C158.205 116.34 155.963 115.649 154.363 114.267C152.763 112.861 151.963 110.789 151.963 108.049V102.195C151.963 99.3826 152.799 97.2857 154.472 95.9038C156.169 94.4978 158.375 93.7947 161.09 93.7947C163.829 93.7947 166.023 94.5099 167.672 95.9402C169.32 97.3463 170.144 99.516 170.144 102.449V105.795H155.599V108.086C155.599 109.904 156.047 111.225 156.944 112.049C157.866 112.849 159.235 113.249 161.053 113.249C162.799 113.249 164.072 113.007 164.872 112.522C165.672 112.037 166.278 111.249 166.69 110.158L170.217 111.177ZM155.599 102.195V103.067H166.508V102.522C166.508 100.558 166.047 99.1281 165.126 98.2311C164.229 97.3341 162.872 96.8857 161.053 96.8857C159.235 96.8857 157.866 97.322 156.944 98.1947C156.047 99.0432 155.599 100.377 155.599 102.195ZM210.536 105.067L209.445 86.8857H214.536L213.445 105.067H210.536ZM212.027 116.34C210.815 116.34 209.918 116.098 209.336 115.613C208.779 115.104 208.5 114.328 208.5 113.286V112.267C208.5 111.201 208.779 110.413 209.336 109.904C209.918 109.395 210.815 109.14 212.027 109.14C213.239 109.14 214.124 109.395 214.682 109.904C215.239 110.413 215.518 111.201 215.518 112.267V113.286C215.518 114.328 215.227 115.104 214.645 115.613C214.088 116.098 213.215 116.34 212.027 116.34ZM236.005 105.067L234.914 86.8857H240.005L238.914 105.067H236.005ZM237.496 116.34C236.284 116.34 235.387 116.098 234.805 115.613C234.248 115.104 233.969 114.328 233.969 113.286V112.267C233.969 111.201 234.248 110.413 234.805 109.904C235.387 109.395 236.284 109.14 237.496 109.14C238.708 109.14 239.593 109.395 240.151 109.904C240.708 110.413 240.987 111.201 240.987 112.267V113.286C240.987 114.328 240.696 115.104 240.114 115.613C239.557 116.098 238.684 116.34 237.496 116.34Z" fill="black"/>
<defs>
<filter id="filter0_d_1367_139" x="257.35" y="123.164" width="50.3555" height="85.5859" filterUnits="userSpaceOnUse" color-interpolation-filters="sRGB">
<feFlood flood-opacity="0" result="BackgroundImageFix"/>
<feColorMatrix in="SourceAlpha" type="matrix" values="0 0 0 0 0 0 0 0 0 0 0 0 0 0 0 0 0 0 127 0" result="hardAlpha"/>
<feOffset dy="4"/>
<feGaussianBlur stdDeviation="2"/>
<feComposite in2="hardAlpha" operator="out"/>
<feColorMatrix type="matrix" values="0 0 0 0 0 0 0 0 0 0 0 0 0 0 0 0 0 0 0.25 0"/>
<feBlend mode="normal" in2="BackgroundImageFix" result="effect1_dropShadow_1367_139"/>
<feBlend mode="normal" in="SourceGraphic" in2="effect1_dropShadow_1367_139" result="shape"/>
</filter>
<filter id="filter1_d_1367_139" x="0" y="0" width="353.578" height="161.008" filterUnits="userSpaceOnUse" color-interpolation-filters="sRGB">
<feFlood flood-opacity="0" result="BackgroundImageFix"/>
<feColorMatrix in="SourceAlpha" type="matrix" values="0 0 0 0 0 0 0 0 0 0 0 0 0 0 0 0 0 0 127 0" result="hardAlpha"/>
<feOffset dy="4"/>
<feGaussianBlur stdDeviation="2"/>
<feComposite in2="hardAlpha" operator="out"/>
<feColorMatrix type="matrix" values="0 0 0 0 0 0 0 0 0 0 0 0 0 0 0 0 0 0 0.25 0"/>
<feBlend mode="normal" in2="BackgroundImageFix" result="effect1_dropShadow_1367_139"/>
<feBlend mode="normal" in="SourceGraphic" in2="effect1_dropShadow_1367_139" result="shape"/>
</filter>
</defs>
</svg>
